<svg width="24" height="12" viewBox="0 0 24 12" fill="none" xmlns="http://www.w3.org/2000/svg">
    <path d="M0.696905 11.9979C1.08179 11.9979 1.39381 11.6865 1.39381 11.3024C1.39381 10.9183 1.08179 10.6069 0.696905 10.6069C0.312015 10.6069 0 10.9183 0 11.3024C0 11.6865 0.312015 11.9979 0.696905 11.9979Z" fill="#F1C823"/>
    <path d="M2.44267 11.9986C2.82756 11.9986 3.13958 11.6872 3.13958 11.3031C3.13958 10.919 2.82756 10.6076 2.44267 10.6076C2.05778 10.6076 1.74577 10.919 1.74577 11.3031C1.74577 11.6872 2.05778 11.9986 2.44267 11.9986Z" fill="#F1C823"/>
    <path d="M4.19046 11.9993C4.57535 11.9993 4.88737 11.6879 4.88737 11.3038C4.88737 10.9197 4.57535 10.6083 4.19046 10.6083C3.80557 10.6083 3.49356 10.9197 3.49356 11.3038C3.49356 11.6879 3.80557 11.9993 4.19046 11.9993Z" fill="#F1C823"/>
    <path d="M5.9418 12C6.32669 12 6.63871 11.6886 6.63871 11.3045C6.63871 10.9204 6.32669 10.609 5.9418 10.609C5.55692 10.609 5.2449 10.9204 5.2449 11.3045C5.2449 11.6886 5.55692 12 5.9418 12Z" fill="#F1C823"/>
    <path d="M0.929682 10.3099C1.31457 10.3099 1.62659 9.99856 1.62659 9.61446C1.62659 9.23035 1.31457 8.91896 0.929682 8.91896C0.544792 8.91896 0.232777 9.23035 0.232777 9.61446C0.232777 9.99856 0.544792 10.3099 0.929682 10.3099Z" fill="#F1C823"/>
    <path d="M2.77091 10.1194C3.1558 10.1194 3.46781 9.80799 3.46781 9.42389C3.46781 9.03978 3.1558 8.72839 2.77091 8.72839C2.38602 8.72839 2.074 9.03978 2.074 9.42389C2.074 9.80799 2.38602 10.1194 2.77091 10.1194Z" fill="#F1C823"/>
    <path d="M4.59746 10.1145C4.98235 10.1145 5.29436 9.80313 5.29436 9.41902C5.29436 9.03491 4.98235 8.72353 4.59746 8.72353C4.21257 8.72353 3.90055 9.03491 3.90055 9.41902C3.90055 9.80313 4.21257 10.1145 4.59746 10.1145Z" fill="#F1C823"/>
    <path d="M1.4147 8.67551C1.79959 8.67551 2.1116 8.36413 2.1116 7.98002C2.1116 7.59591 1.79959 7.28453 1.4147 7.28453C1.02981 7.28453 0.717791 7.59591 0.717791 7.98002C0.717791 8.36413 1.02981 8.67551 1.4147 8.67551Z" fill="#F1C823"/>
    <path d="M6.47699 10.1131C6.86188 10.1131 7.17389 9.80171 7.17389 9.4176C7.17389 9.03349 6.86188 8.72211 6.47699 8.72211C6.0921 8.72211 5.78008 9.03349 5.78008 9.4176C5.78008 9.80171 6.0921 10.1131 6.47699 10.1131Z" fill="#F1C823"/>
    <path d="M3.46568 8.34308C3.85057 8.34308 4.16258 8.03169 4.16258 7.64759C4.16258 7.26348 3.85057 6.9521 3.46568 6.9521C3.08079 6.9521 2.76877 7.26348 2.76877 7.64759C2.76877 8.03169 3.08079 8.34308 3.46568 8.34308Z" fill="#F1C823"/>
    <path d="M2.14018 7.13293C2.52507 7.13293 2.83708 6.82155 2.83708 6.43744C2.83708 6.05333 2.52507 5.74195 2.14018 5.74195C1.75529 5.74195 1.44327 6.05333 1.44327 6.43744C1.44327 6.82155 1.75529 7.13293 2.14018 7.13293Z" fill="#F1C823"/>
    <path d="M5.45393 8.38687C5.83882 8.38687 6.15084 8.07549 6.15084 7.69138C6.15084 7.30727 5.83882 6.99589 5.45393 6.99589C5.06904 6.99589 4.75703 7.30727 4.75703 7.69138C4.75703 8.07549 5.06904 8.38687 5.45393 8.38687Z" fill="#F1C823"/>
    <path d="M3.09005 5.71687C3.47494 5.71687 3.78695 5.40549 3.78695 5.02138C3.78695 4.63728 3.47494 4.32589 3.09005 4.32589C2.70516 4.32589 2.39314 4.63728 2.39314 5.02138C2.39314 5.40549 2.70516 5.71687 3.09005 5.71687Z" fill="#F1C823"/>
    <path d="M4.50059 6.73996C4.88548 6.73996 5.1975 6.42857 5.1975 6.04446C5.1975 5.66036 4.88548 5.34897 4.50059 5.34897C4.1157 5.34897 3.80369 5.66036 3.80369 6.04446C3.80369 6.42857 4.1157 6.73996 4.50059 6.73996Z" fill="#F1C823"/>
    <path d="M7.58649 8.49397C7.97138 8.49397 8.28339 8.18259 8.28339 7.79848C8.28339 7.41437 7.97138 7.10299 7.58649 7.10299C7.2016 7.10299 6.88959 7.41437 6.88959 7.79848C6.88959 8.18259 7.2016 8.49397 7.58649 8.49397Z" fill="#F1C823"/>
    <path d="M4.24203 4.45943C4.62692 4.45943 4.93893 4.14805 4.93893 3.76394C4.93893 3.37983 4.62692 3.06845 4.24203 3.06845C3.85714 3.06845 3.54513 3.37983 3.54513 3.76394C3.54513 4.14805 3.85714 4.45943 4.24203 4.45943Z" fill="#F1C823"/>
    <path d="M6.7077 6.92009C7.09259 6.92009 7.4046 6.60871 7.4046 6.2246C7.4046 5.84049 7.09259 5.52911 6.7077 5.52911C6.32281 5.52911 6.01079 5.84049 6.01079 6.2246C6.01079 6.60871 6.32281 6.92009 6.7077 6.92009Z" fill="#F1C823"/>
    <path d="M5.83308 5.3733C6.21797 5.3733 6.52998 5.06192 6.52998 4.67781C6.52998 4.29371 6.21797 3.98232 5.83308 3.98232C5.44819 3.98232 5.13617 4.29371 5.13617 4.67781C5.13617 5.06192 5.44819 5.3733 5.83308 5.3733Z" fill="#F1C823"/>
    <path d="M5.57104 3.38909C5.95594 3.38909 6.26795 3.0777 6.26795 2.69359C6.26795 2.30949 5.95594 1.9981 5.57104 1.9981C5.18616 1.9981 4.87414 2.30949 4.87414 2.69359C4.87414 3.0777 5.18616 3.38909 5.57104 3.38909Z" fill="#F1C823"/>
    <path d="M7.41086 4.2974C7.79575 4.2974 8.10777 3.98601 8.10777 3.6019C8.10777 3.2178 7.79575 2.90641 7.41086 2.90641C7.02597 2.90641 6.71396 3.2178 6.71396 3.6019C6.71396 3.98601 7.02597 4.2974 7.41086 4.2974Z" fill="#F1C823"/>
    <path d="M8.28271 5.80381C8.6676 5.80381 8.97962 5.49243 8.97962 5.10832C8.97962 4.72421 8.6676 4.41283 8.28271 4.41283C7.89782 4.41283 7.58581 4.72421 7.58581 5.10832C7.58581 5.49243 7.89782 5.80381 8.28271 5.80381Z" fill="#F1C823"/>
    <path d="M9.15382 7.31026C9.53871 7.31026 9.85072 6.99888 9.85072 6.61477C9.85072 6.23066 9.53871 5.91928 9.15382 5.91928C8.76893 5.91928 8.45691 6.23066 8.45691 6.61477C8.45691 6.99888 8.76893 7.31026 9.15382 7.31026Z" fill="#F1C823"/>
    <path d="M7.04573 2.53019C7.43062 2.53019 7.74263 2.21881 7.74263 1.8347C7.74263 1.45059 7.43062 1.13921 7.04573 1.13921C6.66084 1.13921 6.34882 1.45059 6.34882 1.8347C6.34882 2.21881 6.66084 2.53019 7.04573 2.53019Z" fill="#F1C823"/>
    <path d="M8.63326 1.90215C9.01815 1.90215 9.33017 1.59076 9.33017 1.20666C9.33017 0.822546 9.01815 0.511164 8.63326 0.511164C8.24837 0.511164 7.93636 0.822546 7.93636 1.20666C7.93636 1.59076 8.24837 1.90215 8.63326 1.90215Z" fill="#F1C823"/>
    <path d="M9.172 3.55603C9.55689 3.55603 9.86891 3.24465 9.86891 2.86054C9.86891 2.47643 9.55689 2.16505 9.172 2.16505C8.78711 2.16505 8.4751 2.47643 8.4751 2.86054C8.4751 3.24465 8.78711 3.55603 9.172 3.55603Z" fill="#F1C823"/>
    <path d="M10.0828 5.10556C10.4677 5.10556 10.7797 4.79417 10.7797 4.41007C10.7797 4.02596 10.4677 3.71457 10.0828 3.71457C9.69794 3.71457 9.38592 4.02596 9.38592 4.41007C9.38592 4.79417 9.69794 5.10556 10.0828 5.10556Z" fill="#F1C823"/>
    <path d="M11.0174 6.68641C11.4023 6.68641 11.7143 6.37503 11.7143 5.99092C11.7143 5.60681 11.4023 5.29543 11.0174 5.29543C10.6325 5.29543 10.3205 5.60681 10.3205 5.99092C10.3205 6.37503 10.6325 6.68641 11.0174 6.68641Z" fill="#F1C823"/>
    <path d="M10.2975 1.51962C10.6824 1.51962 10.9944 1.20824 10.9944 0.824128C10.9944 0.440019 10.6824 0.128637 10.2975 0.128637C9.91257 0.128637 9.60056 0.440019 9.60056 0.824128C9.60056 1.20824 9.91257 1.51962 10.2975 1.51962Z" fill="#F1C823"/>
    <path d="M11.0446 3.17767C11.4294 3.17767 11.7415 2.86629 11.7415 2.48218C11.7415 2.09807 11.4294 1.78669 11.0446 1.78669C10.6597 1.78669 10.3477 2.09807 10.3477 2.48218C10.3477 2.86629 10.6597 3.17767 11.0446 3.17767Z" fill="#F1C823"/>
    <path d="M12 4.86838C12.3849 4.86838 12.6969 4.557 12.6969 4.17289C12.6969 3.78879 12.3849 3.4774 12 3.4774C11.6151 3.4774 11.3031 3.78879 11.3031 4.17289C11.3031 4.557 11.6151 4.86838 12 4.86838Z" fill="#F1C823"/>
    <path d="M12 1.39098C12.3849 1.39098 12.6969 1.0796 12.6969 0.695491C12.6969 0.311382 12.3849 0 12 0C11.6151 0 11.3031 0.311382 11.3031 0.695491C11.3031 1.0796 11.6151 1.39098 12 1.39098Z" fill="#F1C823"/>
    <path d="M12.9554 3.1777C13.3403 3.1777 13.6523 2.86632 13.6523 2.48221C13.6523 2.0981 13.3403 1.78672 12.9554 1.78672C12.5705 1.78672 12.2585 2.0981 12.2585 2.48221C12.2585 2.86632 12.5705 3.1777 12.9554 3.1777Z" fill="#F1C823"/>
    <path d="M13.7025 1.51965C14.0874 1.51965 14.3994 1.20827 14.3994 0.824159C14.3994 0.44005 14.0874 0.128669 13.7025 0.128669C13.3176 0.128669 13.0056 0.44005 13.0056 0.824159C13.0056 1.20827 13.3176 1.51965 13.7025 1.51965Z" fill="#F1C823"/>
    <path d="M12.9826 6.68644C13.3675 6.68644 13.6795 6.37506 13.6795 5.99095C13.6795 5.60684 13.3675 5.29546 12.9826 5.29546C12.5977 5.29546 12.2857 5.60684 12.2857 5.99095C12.2857 6.37506 12.5977 6.68644 12.9826 6.68644Z" fill="#F1C823"/>
    <path d="M13.9172 5.10559C14.3021 5.10559 14.6141 4.79421 14.6141 4.4101C14.6141 4.02599 14.3021 3.71461 13.9172 3.71461C13.5323 3.71461 13.2203 4.02599 13.2203 4.4101C13.2203 4.79421 13.5323 5.10559 13.9172 5.10559Z" fill="#F1C823"/>
    <path d="M14.828 3.55604C15.2129 3.55604 15.5249 3.24466 15.5249 2.86055C15.5249 2.47644 15.2129 2.16506 14.828 2.16506C14.4431 2.16506 14.1311 2.47644 14.1311 2.86055C14.1311 3.24466 14.4431 3.55604 14.828 3.55604Z" fill="#F1C823"/>
    <path d="M15.3667 1.90219C15.7516 1.90219 16.0636 1.59081 16.0636 1.2067C16.0636 0.822592 15.7516 0.51121 15.3667 0.51121C14.9818 0.51121 14.6698 0.822592 14.6698 1.2067C14.6698 1.59081 14.9818 1.90219 15.3667 1.90219Z" fill="#F1C823"/>
    <path d="M16.9543 2.53019C17.3392 2.53019 17.6512 2.21881 17.6512 1.8347C17.6512 1.45059 17.3392 1.13921 16.9543 1.13921C16.5694 1.13921 16.2574 1.45059 16.2574 1.8347C16.2574 2.21881 16.5694 2.53019 16.9543 2.53019Z" fill="#F1C823"/>
    <path d="M14.8462 7.31032C15.2311 7.31032 15.5431 6.99893 15.5431 6.61483C15.5431 6.23072 15.2311 5.91934 14.8462 5.91934C14.4613 5.91934 14.1493 6.23072 14.1493 6.61483C14.1493 6.99893 14.4613 7.31032 14.8462 7.31032Z" fill="#F1C823"/>
    <path d="M15.7173 5.80386C16.1022 5.80386 16.4142 5.49248 16.4142 5.10837C16.4142 4.72426 16.1022 4.41288 15.7173 4.41288C15.3324 4.41288 15.0204 4.72426 15.0204 5.10837C15.0204 5.49248 15.3324 5.80386 15.7173 5.80386Z" fill="#F1C823"/>
    <path d="M16.5891 4.29745C16.974 4.29745 17.286 3.98607 17.286 3.60196C17.286 3.21785 16.974 2.90647 16.5891 2.90647C16.2042 2.90647 15.8922 3.21785 15.8922 3.60196C15.8922 3.98607 16.2042 4.29745 16.5891 4.29745Z" fill="#F1C823"/>
    <path d="M18.4289 3.38914C18.8138 3.38914 19.1258 3.07776 19.1258 2.69365C19.1258 2.30954 18.8138 1.99816 18.4289 1.99816C18.044 1.99816 17.732 2.30954 17.732 2.69365C17.732 3.07776 18.044 3.38914 18.4289 3.38914Z" fill="#F1C823"/>
    <path d="M18.1669 5.37336C18.5518 5.37336 18.8638 5.06198 18.8638 4.67787C18.8638 4.29376 18.5518 3.98238 18.1669 3.98238C17.782 3.98238 17.47 4.29376 17.47 4.67787C17.47 5.06198 17.782 5.37336 18.1669 5.37336Z" fill="#F1C823"/>
    <path d="M17.2923 6.92015C17.6772 6.92015 17.9892 6.60876 17.9892 6.22465C17.9892 5.84055 17.6772 5.52916 17.2923 5.52916C16.9074 5.52916 16.5954 5.84055 16.5954 6.22465C16.5954 6.60876 16.9074 6.92015 17.2923 6.92015Z" fill="#F1C823"/>
    <path d="M19.758 4.45948C20.1428 4.45948 20.4549 4.1481 20.4549 3.76399C20.4549 3.37988 20.1428 3.0685 19.758 3.0685C19.3731 3.0685 19.061 3.37988 19.061 3.76399C19.061 4.1481 19.3731 4.45948 19.758 4.45948Z" fill="#F1C823"/>
    <path d="M16.4135 8.49403C16.7984 8.49403 17.1104 8.18264 17.1104 7.79854C17.1104 7.41443 16.7984 7.10305 16.4135 7.10305C16.0286 7.10305 15.7166 7.41443 15.7166 7.79854C15.7166 8.18264 16.0286 8.49403 16.4135 8.49403Z" fill="#F1C823"/>
    <path d="M19.4993 6.74001C19.8842 6.74001 20.1963 6.42863 20.1963 6.04452C20.1963 5.66041 19.8842 5.34903 19.4993 5.34903C19.1145 5.34903 18.8024 5.66041 18.8024 6.04452C18.8024 6.42863 19.1145 6.74001 19.4993 6.74001Z" fill="#F1C823"/>
    <path d="M20.9099 5.71693C21.2948 5.71693 21.6068 5.40555 21.6068 5.02144C21.6068 4.63733 21.2948 4.32595 20.9099 4.32595C20.525 4.32595 20.213 4.63733 20.213 5.02144C20.213 5.40555 20.525 5.71693 20.9099 5.71693Z" fill="#F1C823"/>
    <path d="M18.546 8.38693C18.9309 8.38693 19.2429 8.07554 19.2429 7.69144C19.2429 7.30733 18.9309 6.99595 18.546 6.99595C18.1611 6.99595 17.8491 7.30733 17.8491 7.69144C17.8491 8.07554 18.1611 8.38693 18.546 8.38693Z" fill="#F1C823"/>
    <path d="M21.8598 7.13294C22.2447 7.13294 22.5567 6.82156 22.5567 6.43745C22.5567 6.05334 22.2447 5.74196 21.8598 5.74196C21.4749 5.74196 21.1629 6.05334 21.1629 6.43745C21.1629 6.82156 21.4749 7.13294 21.8598 7.13294Z" fill="#F1C823"/>
    <path d="M20.5343 8.34309C20.9192 8.34309 21.2312 8.03171 21.2312 7.6476C21.2312 7.26349 20.9192 6.95211 20.5343 6.95211C20.1494 6.95211 19.8374 7.26349 19.8374 7.6476C19.8374 8.03171 20.1494 8.34309 20.5343 8.34309Z" fill="#F1C823"/>
    <path d="M17.523 10.1131C17.9079 10.1131 18.2199 9.80177 18.2199 9.41766C18.2199 9.03355 17.9079 8.72217 17.523 8.72217C17.1381 8.72217 16.8261 9.03355 16.8261 9.41766C16.8261 9.80177 17.1381 10.1131 17.523 10.1131Z" fill="#F1C823"/>
    <path d="M22.5853 8.67557C22.9702 8.67557 23.2822 8.36418 23.2822 7.98007C23.2822 7.59597 22.9702 7.28458 22.5853 7.28458C22.2004 7.28458 21.8884 7.59597 21.8884 7.98007C21.8884 8.36418 22.2004 8.67557 22.5853 8.67557Z" fill="#F1C823"/>
    <path d="M19.4025 10.1146C19.7874 10.1146 20.0994 9.80317 20.0994 9.41906C20.0994 9.03495 19.7874 8.72357 19.4025 8.72357C19.0176 8.72357 18.7056 9.03495 18.7056 9.41906C18.7056 9.80317 19.0176 10.1146 19.4025 10.1146Z" fill="#F1C823"/>
    <path d="M21.2291 10.1194C21.614 10.1194 21.926 9.80799 21.926 9.42389C21.926 9.03978 21.614 8.72839 21.2291 8.72839C20.8442 8.72839 20.5322 9.03978 20.5322 9.42389C20.5322 9.80799 20.8442 10.1194 21.2291 10.1194Z" fill="#F1C823"/>
    <path d="M23.0703 10.3099C23.4552 10.3099 23.7672 9.99856 23.7672 9.61446C23.7672 9.23035 23.4552 8.91896 23.0703 8.91896C22.6854 8.91896 22.3734 9.23035 22.3734 9.61446C22.3734 9.99856 22.6854 10.3099 23.0703 10.3099Z" fill="#F1C823"/>
    <path d="M18.0582 12C18.4431 12 18.7551 11.6886 18.7551 11.3045C18.7551 10.9204 18.4431 10.609 18.0582 10.609C17.6733 10.609 17.3613 10.9204 17.3613 11.3045C17.3613 11.6886 17.6733 12 18.0582 12Z" fill="#F1C823"/>
    <path d="M19.8095 11.9993C20.1944 11.9993 20.5064 11.6879 20.5064 11.3038C20.5064 10.9197 20.1944 10.6083 19.8095 10.6083C19.4246 10.6083 19.1126 10.9197 19.1126 11.3038C19.1126 11.6879 19.4246 11.9993 19.8095 11.9993Z" fill="#F1C823"/>
    <path d="M21.5574 11.9986C21.9423 11.9986 22.2543 11.6872 22.2543 11.3031C22.2543 10.919 21.9423 10.6076 21.5574 10.6076C21.1725 10.6076 20.8605 10.919 20.8605 11.3031C20.8605 11.6872 21.1725 11.9986 21.5574 11.9986Z" fill="#F1C823"/>
    <path d="M23.3031 11.9979C23.688 11.9979 24 11.6865 24 11.3024C24 10.9183 23.688 10.6069 23.3031 10.6069C22.9182 10.6069 22.6062 10.9183 22.6062 11.3024C22.6062 11.6865 22.9182 11.9979 23.3031 11.9979Z" fill="#F1C823"/>
</svg>