<svg width="20" height="17" viewBox="0 0 20 17" fill="none" xmlns="http://www.w3.org/2000/svg">
    <path d="M2.16193 1.21216C1.68976 0.708521 0.898718 0.683003 0.395078 1.15517C-0.108563 1.62733 -0.13408 2.41837 0.338083 2.92201L5.02558 7.92201C5.48222 8.40909 6.24103 8.45133 6.7489 8.01795L10.4486 4.86089L15.2689 10.9666C15.6967 11.5085 16.4827 11.601 17.0246 11.1732C17.5664 10.7454 17.6589 9.95938 17.2311 9.41753L11.6061 2.29253C11.1667 1.73601 10.353 1.65597 9.8136 2.11623L6.03354 5.34188L2.16193 1.21216Z" fill="#FF5630"/>
    <path d="M12.8217 11.0132C12.1313 11.0132 11.5717 11.5729 11.5717 12.2632C11.5717 12.9536 12.1313 13.5132 12.8217 13.5132L18.125 13.5132C18.8154 13.5132 19.375 12.9536 19.375 12.2632L19.375 6.95991C19.375 6.26955 18.8154 5.70991 18.125 5.70991C17.4346 5.70991 16.875 6.26955 16.875 6.95991L16.875 11.0132L12.8217 11.0132Z" fill="#FF5630"/>
</svg>