<svg width="48" height="48" viewBox="0 0 48 48" fill="none" xmlns="http://www.w3.org/2000/svg">
    <rect width="48" height="48" rx="24" fill="#FDF4E0"/>
    <path opacity="0.3" d="M20.0337 21.9762L22.8083 21.5998C22.6326 20.3041 23.059 19.0013 24 18.0603C25.6402 16.4201 28.2995 16.4201 29.9397 18.0603C31.5799 19.7005 31.5799 22.3598 29.9397 24C29.0995 24.8402 27.9717 25.2718 26.8067 25.227L26.699 28.0249C28.5796 28.0973 30.4839 27.4156 31.9196 25.9799C34.6533 23.2462 34.6533 18.8141 31.9196 16.0804C29.186 13.3467 24.7538 13.3467 22.0201 16.0804C20.4121 17.6884 19.75 19.8841 20.0337 21.9762Z" fill="#F1C823"/>
    <path fill-rule="evenodd" clip-rule="evenodd" d="M25.9799 31.9197C23.2462 34.6534 18.814 34.6534 16.0804 31.9197C13.3467 29.186 13.3467 24.7539 16.0804 22.0202C18.814 19.2866 23.2462 19.2866 25.9799 22.0202C28.7135 24.7539 28.7135 29.186 25.9799 31.9197Z" fill="#F1C823"/>
</svg>