<svg width="48" height="48" viewBox="0 0 48 48" fill="none" xmlns="http://www.w3.org/2000/svg">
    <rect width="48" height="48" rx="24" fill="#FDF4E0"/>
    <path opacity="0.3" d="M30 26C28.3431 26 27 24.6569 27 23C27 21.3431 28.3431 20 30 20C31.6569 20 33 21.3431 33 23C33 24.6569 31.6569 26 30 26Z" fill="#F1C823"/>
    <path opacity="0.3" d="M21 23C18.7909 23 17 21.2091 17 19C17 16.7909 18.7909 15 21 15C23.2091 15 25 16.7909 25 19C25 21.2091 23.2091 23 21 23Z" fill="#F1C823"/>
    <path d="M12.0007 32.1992C12.3883 27.4265 16.2619 25 20.9833 25C25.7712 25 29.7049 27.2932 29.9979 32.2C30.0096 32.3955 29.9979 33 29.2467 33C25.5411 33 20.0347 33 12.7275 33C12.4767 33 11.9795 32.4592 12.0007 32.1992Z" fill="#F1C823"/>
    <path opacity="0.3" fill-rule="evenodd" clip-rule="evenodd" d="M31.5999 33.0001H35.4558C35.9984 33.0001 36.0068 32.5467 35.9984 32.4001C35.7891 28.7603 33.0076 27.038 29.6011 27.0007C30.8562 28.6719 31.5999 30.7492 31.5999 33.0001Z" fill="#F1C823"/>
</svg>