<svg width="17" height="17" viewBox="0 0 17 17" fill="none" xmlns="http://www.w3.org/2000/svg">
<path d="M14.875 4.24999V14.1667C14.875 14.5424 14.7257 14.9027 14.4601 15.1684C14.1944 15.4341 13.8341 15.5833 13.4583 15.5833H3.54167C2.75542 15.5833 2.125 14.9458 2.125 14.1667V4.24999C2.125 3.87427 2.27426 3.51393 2.53993 3.24826C2.80561 2.98258 3.16594 2.83332 3.54167 2.83332H4.25V1.41666H5.66667V2.83332H11.3333V1.41666H12.75V2.83332H13.4583C13.8341 2.83332 14.1944 2.98258 14.4601 3.24826C14.7257 3.51393 14.875 3.87427 14.875 4.24999ZM3.54167 5.66666H13.4583V4.24999H3.54167V5.66666ZM13.4583 14.1667V7.08332H3.54167V14.1667H13.4583Z" fill="white"/>
<g opacity="0.3">
<path d="M6.37467 8.5H4.95801V9.91667H6.37467V8.5Z" fill="white"/>
<path d="M10.6247 8.5V9.91667H12.0413V8.5H10.6247Z" fill="white"/>
<path d="M7.79134 8.5V9.91667H9.20801V8.5H7.79134Z" fill="white"/>
<path d="M6.37467 11.3333H4.95801V12.75H6.37467V11.3333Z" fill="white"/>
<path d="M10.6247 11.3333V12.75H12.0413V11.3333H10.6247Z" fill="white"/>
<path d="M7.79134 11.3333V12.75H9.20801V11.3333H7.79134Z" fill="white"/>
</g>
</svg>
