<svg width="24" height="24" viewBox="0 0 24 24" fill="none" xmlns="http://www.w3.org/2000/svg">
<circle opacity="0.3" cx="12" cy="12" r="10" fill="#FF5630"/>
<path fill-rule="evenodd" clip-rule="evenodd" d="M16.2782 7.79289C15.8877 7.40237 15.2545 7.40237 14.864 7.79289L12.0355 10.6213L9.20711 7.79289C8.81658 7.40237 8.18342 7.40237 7.79289 7.79289C7.40237 8.18342 7.40237 8.81658 7.79289 9.20711L10.6213 12.0355L7.79289 14.864C7.40237 15.2545 7.40237 15.8877 7.79289 16.2782C8.18342 16.6687 8.81658 16.6687 9.20711 16.2782L12.0355 13.4497L14.864 16.2782C15.2545 16.6687 15.8877 16.6687 16.2782 16.2782C16.6687 15.8877 16.6687 15.2545 16.2782 14.864L13.4497 12.0355L16.2782 9.20711C16.6687 8.81658 16.6687 8.18342 16.2782 7.79289Z" fill="#FF5630"/>
</svg>
