<svg width="17" height="17" viewBox="0 0 17 17" fill="none" xmlns="http://www.w3.org/2000/svg">
<path fill-rule="evenodd" clip-rule="evenodd" d="M2.89453 3.88831C2.89453 3.66452 3.03208 3.46459 3.23936 3.38388C4.41697 2.92531 8.30384 1.41013 9.96387 0.764466C10.1363 0.696597 10.3307 0.718487 10.483 0.823041C10.6352 0.927596 10.7251 1.10011 10.7251 1.28537C10.7251 4.52473 10.7251 16.2751 10.7251 16.2751H2.89453C2.89453 16.2751 2.89453 5.98306 2.89453 3.88831Z" stroke="currentColor" stroke-width="1.2" stroke-miterlimit="1.5" stroke-linecap="round" stroke-linejoin="round"/>
<path d="M1.5 16.2754H15.5" stroke="currentColor" stroke-width="1.2" stroke-miterlimit="1.5" stroke-linecap="round" stroke-linejoin="round"/>
<path fill-rule="evenodd" clip-rule="evenodd" d="M14.2527 8.46259L10.7227 7.08691V16.2713H14.2527V8.46259Z" stroke="currentColor" stroke-width="1.2" stroke-miterlimit="1.5" stroke-linecap="round" stroke-linejoin="round"/>
<path fill-rule="evenodd" clip-rule="evenodd" d="M8.52389 4.34082L4.83984 5.72988V7.88292H8.52389V4.34082Z" stroke="currentColor" stroke-width="1.2" stroke-miterlimit="10" stroke-linecap="round" stroke-linejoin="round"/>
<path d="M8.42251 7.88281H4.83984V10.6911H8.42251V7.88281Z" stroke="currentColor" stroke-width="1.2" stroke-miterlimit="10" stroke-linecap="round" stroke-linejoin="round"/>
<path d="M10.7227 10.6953H14.2325" stroke="currentColor" stroke-width="1.2" stroke-miterlimit="10" stroke-linecap="round" stroke-linejoin="round"/>
<path d="M10.7227 13.5H14.2325" stroke="currentColor" stroke-width="1.2" stroke-miterlimit="10" stroke-linecap="round" stroke-linejoin="round"/>
<path d="M8.42251 10.6914H4.83984V13.4997H8.42251V10.6914Z" stroke="currentColor" stroke-width="1.2" stroke-miterlimit="10" stroke-linecap="round" stroke-linejoin="round"/>
</svg>
