<svg width="17" height="19" viewBox="0 0 17 19" fill="none" xmlns="http://www.w3.org/2000/svg">
<path d="M2.49609 11.3719C3.01867 9.5411 5.01582 9.56724 6.62091 8.85342C7.11782 8.63222 7.29239 7.99632 6.9678 7.37506C6.71293 6.89029 6.47646 6.45729 6.31974 5.81563C6.12956 5.0354 6.46196 4.66672 6.28851 4.14116C6.0961 3.5586 6.07491 3.17057 6.23162 2.60161C6.52275 1.56827 7.4491 1.17188 8.54054 1.17188C9.63253 1.17188 10.5589 1.56827 10.8495 2.60161C11.0067 3.17057 10.9855 3.5586 10.7931 4.14116C10.6197 4.66672 10.9521 5.0354 10.7619 5.81563C10.6046 6.45729 10.3687 6.89029 10.1133 7.37506C9.78925 7.99632 9.96381 8.63222 10.4607 8.85342C12.0535 9.56201 14.034 9.54162 14.5733 11.3322" stroke="currentColor" stroke-width="1.19601" stroke-miterlimit="2" stroke-linecap="round" stroke-linejoin="round"/>
<path d="M1.49082 13.9055L4.32826 12.6958L4.37353 12.4765C4.46696 12.1132 4.74642 11.8079 5.14603 11.6794C5.78252 11.4748 6.48667 11.7972 6.7191 12.4043C6.94979 13.0068 6.61963 13.6614 5.98315 13.866C5.74964 13.9411 5.50713 13.9474 5.28193 13.8917" stroke="currentColor" stroke-width="1.16716" stroke-miterlimit="10" stroke-linecap="round" stroke-linejoin="round"/>
<path d="M15.5912 13.9055L12.7538 12.6958L12.7085 12.4765C12.6151 12.1132 12.3356 11.8079 11.936 11.6794C11.2995 11.4748 10.5954 11.7972 10.3629 12.4043C10.1322 13.0068 10.4624 13.6614 11.0989 13.866C11.3324 13.9411 11.5749 13.9474 11.8001 13.8917" stroke="currentColor" stroke-width="1.16716" stroke-miterlimit="10" stroke-linecap="round" stroke-linejoin="round"/>
<path d="M1 16H16.0007" stroke="currentColor" stroke-width="1.14154" stroke-miterlimit="10" stroke-linecap="round" stroke-linejoin="round"/>
<path d="M2.41797 17.8281H14.5368" stroke="currentColor" stroke-width="1.18637" stroke-miterlimit="10" stroke-linecap="round" stroke-linejoin="round"/>
</svg>
