<svg width="8" height="8" viewBox="0 0 8 8" fill="none" xmlns="http://www.w3.org/2000/svg">
    <path fill-rule="evenodd" clip-rule="evenodd" d="M2.18767 4L0.375345 2.18767C-0.125115 1.68721 -0.125115 0.875806 0.375345 0.375345C0.875806 -0.125115 1.68721 -0.125115 2.18767 0.375345L4 2.18767L5.81233 0.375345C6.31279 -0.125115 7.1242 -0.125115 7.62466 0.375345C8.12512 0.875806 8.12512 1.68721 7.62466 2.18767L5.81233 4L7.62466 5.81233C8.12512 6.31279 8.12512 7.1242 7.62466 7.62466C7.1242 8.12512 6.31279 8.12512 5.81233 7.62466L4 5.81233L2.18767 7.62466C1.68721 8.12512 0.875806 8.12512 0.375345 7.62466C-0.125115 7.1242 -0.125115 6.31279 0.375345 5.81233L2.18767 4Z" fill="#4E5D78"/>
</svg>