<?xml version="1.0" encoding="UTF-8" standalone="no"?>
<!DOCTYPE svg PUBLIC "-//W3C//DTD SVG 1.1//EN" "http://www.w3.org/Graphics/SVG/1.1/DTD/svg11.dtd">
<svg width="100%" height="100%" viewBox="0 0 16 20" version="1.1" xmlns="http://www.w3.org/2000/svg" xmlns:xlink="http://www.w3.org/1999/xlink" xml:space="preserve" xmlns:serif="http://www.serif.com/" style="fill-rule:evenodd;clip-rule:evenodd;stroke-linejoin:round;stroke-miterlimit:2;">
    <g transform="matrix(1,0,0,1,-4,-2)">
        <path d="M5.857,2L13.736,2C14.091,2 14.434,2.126 14.705,2.355L19.469,6.384C19.806,6.669 20,7.088 20,7.529L20,20.083C20,21.874 19.98,22 18.143,22L5.857,22C4.02,22 4,21.874 4,20.083L4,3.917C4,2.126 4.02,2 5.857,2ZM11,16C11,15.448 10.552,15 10,15L7,15C6.448,15 6,15.448 6,16C6,16.552 6.448,17 7,17L10,17C10.552,17 11,16.552 11,16ZM15,12C15,11.448 14.552,11 14,11L7,11C6.448,11 6,11.448 6,12C6,12.552 6.448,13 7,13L14,13C14.552,13 15,12.552 15,12Z" style="fill:rgb(154,163,178);fill-rule:nonzero;"/>
    </g>
</svg>
