<svg width="17" height="17" viewBox="0 0 17 17" fill="none" xmlns="http://www.w3.org/2000/svg">
<path fill-rule="evenodd" clip-rule="evenodd" d="M12.9099 5.72622C12.8351 5.90675 12.6589 6.02446 12.4635 6.02446H9.13984C8.87301 6.02446 8.65671 5.80815 8.65671 5.54133V2.70311H3.96798V14.2972H11.9807V12.0641C11.9807 11.7968 12.1974 11.5801 12.4647 11.5801C12.732 11.5801 12.9487 11.7968 12.9487 12.0641V14.7812C12.9487 15.0485 12.732 15.2652 12.4647 15.2652H3.48399C3.21669 15.2652 3 15.0485 3 14.7812V2.21912C3 1.95182 3.21669 1.73513 3.48399 1.73513H9.11496C9.17554 1.73202 9.23605 1.74036 9.29327 1.75952C9.37453 1.78639 9.44626 1.83422 9.50204 1.8966L12.8051 5.19971C12.9433 5.33788 12.9846 5.54568 12.9099 5.72622ZM11.2971 5.0582L9.62297 3.38402V5.0582H11.2971ZM5.39743 9.72505C5.15789 9.72505 4.9637 9.91924 4.9637 10.1588C4.9637 10.3983 5.15789 10.5925 5.39743 10.5925H7.7988C8.03834 10.5925 8.23253 10.3983 8.23253 10.1588C8.23253 9.91924 8.03834 9.72505 7.7988 9.72505H5.39743ZM5.04974 5.55743C5.04974 5.36565 5.2052 5.21019 5.39698 5.21019H6.71709C6.90887 5.21019 7.06434 5.36565 7.06434 5.55743C7.06434 5.74921 6.90887 5.90468 6.71709 5.90468H5.39698C5.2052 5.90468 5.04974 5.74921 5.04974 5.55743ZM5.39821 7.357C5.13109 7.357 4.91454 7.57355 4.91454 7.84067C4.91454 8.1078 5.13109 8.32435 5.39821 8.32435H10.3092C10.5763 8.32435 10.7928 8.1078 10.7928 7.84067C10.7928 7.57355 10.5763 7.357 10.3092 7.357H5.39821ZM5.07227 12.4767C5.07227 12.2979 5.21718 12.153 5.39593 12.153H6.5205C6.69925 12.153 6.84416 12.2979 6.84416 12.4767C6.84416 12.6554 6.69925 12.8003 6.5205 12.8003H5.39593C5.21718 12.8003 5.07227 12.6554 5.07227 12.4767ZM7.90369 12.1326C7.72358 12.3305 7.73805 12.637 7.93601 12.8171C8.13397 12.9972 8.44046 12.9828 8.62057 12.7848L13.6926 7.21017C13.693 7.20977 13.6964 7.20661 13.703 7.20183C13.7075 7.19853 13.7122 7.19547 13.7168 7.19278C13.7436 7.19428 13.7705 7.19354 13.7973 7.19056C13.8328 7.1866 13.8601 7.19638 13.8843 7.21839L13.9839 7.30898C14.0081 7.33099 14.0204 7.35729 14.0198 7.39301C14.0194 7.41996 14.0212 7.44686 14.0252 7.47342C14.0229 7.4782 14.0203 7.48317 14.0175 7.48802C14.0137 7.49444 14.011 7.49804 14.0103 7.49897L14.0102 7.49915L11.7014 10.0367C11.5213 10.2347 11.5358 10.5412 11.7337 10.7213C11.9317 10.9014 12.2386 10.8864 12.4187 10.6885L14.7281 8.15022C14.82 8.04926 14.8957 7.9193 14.943 7.78725C14.9803 7.68324 15.0208 7.51941 14.9879 7.34086C14.9747 7.04543 14.844 6.78122 14.6361 6.5921L14.5366 6.50152C14.3287 6.3124 14.0534 6.20716 13.758 6.22185C13.5771 6.20589 13.4179 6.26168 13.3178 6.30859C13.1908 6.36814 13.0686 6.45581 12.9767 6.55677L7.90369 12.1326Z" fill="#243F5F"/>
</svg>
