<svg width="48" height="48" viewBox="0 0 48 48" fill="none" xmlns="http://www.w3.org/2000/svg">
    <circle cx="24" cy="24" r="24" fill="#F3F3F3"/>
    <g opacity="0.3">
        <path d="M14.4113 24.9589C14.4113 24.4794 14.8907 24 15.3702 24C15.8496 24 16.3291 24.4794 16.3291 24.9589C16.3291 25.2785 16.3291 26.8767 16.3291 29.7534C16.3291 30.8126 17.1877 31.6712 18.2469 31.6712H29.7537C30.8129 31.6712 31.6715 30.8126 31.6715 29.7534V24.9589C31.6715 24.4293 32.1008 24 32.6304 24C33.16 24 33.5893 24.4293 33.5893 24.9589V29.7534C33.5893 31.8718 31.8721 33.589 29.7537 33.589H18.2469C16.1285 33.589 14.4113 31.8718 14.4113 29.7534C14.4113 26.8767 14.4113 25.2785 14.4113 24.9589Z" fill="#8A94A6"/>
        <path d="M24.9592 15.3698C24.9592 14.8402 24.5299 14.4109 24.0003 14.4109C23.4707 14.4109 23.0414 14.8402 23.0414 15.3698V26.8767C23.0414 27.4063 23.4707 27.8356 24.0003 27.8356C24.5299 27.8356 24.9592 27.4063 24.9592 26.8767V15.3698Z" fill="#8A94A6"/>
        <path d="M24.035 15.7323L19.8838 19.8835C19.5093 20.258 18.9022 20.258 18.5277 19.8835C18.1533 19.509 18.1533 18.9019 18.5277 18.5274L23.3222 13.7329C23.6829 13.3723 24.2627 13.357 24.6418 13.6982L29.4363 18.0133C29.8299 18.3675 29.8618 18.9738 29.5076 19.3675C29.1533 19.7611 28.547 19.793 28.1533 19.4387L24.035 15.7323Z" fill="#8A94A6"/>
    </g>
</svg>