<svg width="17" height="17" viewBox="0 0 17 17" fill="none" xmlns="http://www.w3.org/2000/svg">
<path fill-rule="evenodd" clip-rule="evenodd" d="M2 6.62994C2 6.93756 2.08252 7.30627 2.39983 7.52581L2.40119 7.52674C2.5465 7.6266 2.80714 7.77533 3.12456 7.77533H6.6903C7.00772 7.77533 7.26835 7.6266 7.41367 7.52674L7.41502 7.52581C7.73233 7.30627 7.81486 6.93757 7.81486 6.62994V3.06459C7.81486 2.81717 7.72548 2.50844 7.48595 2.30242C7.21759 1.99428 6.85754 1.99693 6.7119 1.99801L6.6903 1.99812H3.12456L3.10296 1.99801C2.95732 1.99693 2.59726 1.99428 2.3289 2.30242C2.08936 2.50845 2 2.81718 2 3.06459V6.62994ZM3.08166 6.73957C3.06536 6.73299 3.04768 6.72429 3.02909 6.7137C3.02603 6.69443 3.02341 6.66647 3.02341 6.62994V3.06459C3.02341 3.06211 3.02354 3.0596 3.02379 3.05712C3.03673 3.04604 3.04911 3.03432 3.06089 3.022L3.07195 3.02178C3.08734 3.02154 3.10358 3.02153 3.12456 3.02153H6.6903C6.71128 3.02153 6.72752 3.02154 6.74291 3.02178L6.75397 3.022C6.76574 3.03432 6.77812 3.04604 6.79107 3.05713C6.79132 3.0596 6.79145 3.06212 6.79145 3.06459V6.62994C6.79145 6.66647 6.78883 6.69443 6.78577 6.7137C6.76718 6.72429 6.7495 6.73299 6.73319 6.73957C6.70511 6.75092 6.6914 6.75184 6.6903 6.75192L3.12453 6.75191C3.12343 6.75184 3.10975 6.75092 3.08166 6.73957ZM9.58692 7.52581C9.26961 7.30627 9.18709 6.93756 9.18709 6.62994V3.06459C9.18709 2.81718 9.27646 2.50845 9.516 2.30242C9.78435 1.99428 10.1444 1.99693 10.29 1.99801L10.3116 1.99812H13.8774L13.899 1.99801C14.0446 1.99693 14.4047 1.99428 14.673 2.30242C14.9126 2.50844 15.002 2.81717 15.002 3.06459V6.62994C15.002 6.93757 14.9194 7.30627 14.6021 7.52581L14.6008 7.52674C14.4554 7.6266 14.1948 7.77533 13.8774 7.77533H10.3116C9.99423 7.77533 9.73359 7.6266 9.58828 7.52674L9.58692 7.52581ZM10.2162 6.7137C10.2348 6.72429 10.2524 6.73299 10.2687 6.73957C10.2968 6.75092 10.3105 6.75184 10.3116 6.75191L13.8774 6.75192C13.8785 6.75184 13.8922 6.75092 13.9203 6.73957C13.9366 6.73299 13.9543 6.72429 13.9729 6.7137C13.9759 6.69443 13.9785 6.66647 13.9785 6.62994V3.06459C13.9785 3.06212 13.9784 3.0596 13.9782 3.05713C13.9652 3.04604 13.9528 3.03432 13.9411 3.022L13.93 3.02178C13.9146 3.02154 13.8984 3.02153 13.8774 3.02153H10.3116C10.2907 3.02153 10.2744 3.02154 10.259 3.02178L10.248 3.022C10.2362 3.03432 10.2238 3.04604 10.2109 3.05712C10.2106 3.0596 10.2105 3.06211 10.2105 3.06459V6.62994C10.2105 6.66647 10.2131 6.69443 10.2162 6.7137ZM3.16174 9.1718C2.85376 9.1718 2.48534 9.25516 2.26652 9.57347L2.26559 9.57482C2.16601 9.72068 2.01839 9.98136 2.01839 10.2983V13.8756C2.01839 14.1925 2.16602 14.4532 2.26559 14.5991L2.26652 14.6004C2.48533 14.9187 2.85375 15.0021 3.16174 15.0021H6.71564C6.96379 15.0021 7.27231 14.9118 7.47768 14.6714C7.78423 14.4027 7.78154 14.043 7.78044 13.8974L7.78033 13.8756V10.2983L7.78044 10.2765C7.78154 10.1309 7.78423 9.77116 7.47768 9.50244C7.27231 9.2621 6.96378 9.1718 6.71564 9.1718H3.16174ZM3.05441 10.2536C3.06102 10.2371 3.06973 10.2193 3.0803 10.2006C3.09919 10.1977 3.12594 10.1952 3.16174 10.1952H6.71564L6.72121 10.1954C6.73231 10.2084 6.74406 10.2209 6.75641 10.2327L6.75667 10.2455C6.75691 10.261 6.75692 10.2773 6.75692 10.2983V13.8756C6.75692 13.8966 6.75691 13.9129 6.75667 13.9284L6.75641 13.9411C6.74406 13.953 6.73231 13.9654 6.72121 13.9784L6.71564 13.9787H3.16174C3.12594 13.9787 3.09919 13.9762 3.0803 13.9732C3.06973 13.9546 3.06102 13.9367 3.05441 13.9203C3.04208 13.8896 3.04179 13.8754 3.04179 13.8756L3.04179 10.2983C3.04181 10.2978 3.04237 10.2836 3.05441 10.2536ZM10.3472 9.1718C10.0392 9.1718 9.67076 9.25516 9.45194 9.57347L9.45101 9.57482C9.35143 9.72068 9.20381 9.98136 9.20381 10.2983V13.8756C9.20381 14.1925 9.35144 14.4532 9.45101 14.5991L9.45194 14.6004C9.67075 14.9187 10.0392 15.0021 10.3472 15.0021H13.9011C14.1492 15.0021 14.4577 14.9118 14.6631 14.6714C14.9696 14.4027 14.967 14.043 14.9659 13.8974L14.9657 13.8756V10.2983L14.9659 10.2765C14.967 10.1309 14.9696 9.77116 14.6631 9.50244C14.4577 9.2621 14.1492 9.1718 13.9011 9.1718H10.3472ZM10.2398 10.2536C10.2464 10.2371 10.2551 10.2193 10.2657 10.2006C10.2846 10.1977 10.3114 10.1952 10.3472 10.1952H13.9011L13.9066 10.1954C13.9177 10.2084 13.9295 10.2209 13.9418 10.2327L13.9421 10.2455C13.9423 10.261 13.9423 10.2773 13.9423 10.2983V13.8756C13.9423 13.8966 13.9423 13.9129 13.9421 13.9284L13.9418 13.9411C13.9295 13.953 13.9177 13.9654 13.9066 13.9784L13.9011 13.9787H10.3472C10.3114 13.9787 10.2846 13.9762 10.2657 13.9732C10.2551 13.9546 10.2464 13.9367 10.2398 13.9203C10.2275 13.8896 10.2272 13.8754 10.2272 13.8756V10.2983C10.2272 10.2978 10.2278 10.2836 10.2398 10.2536Z" fill="#243F5F"/>
</svg>
