<?xml version="1.0" encoding="UTF-8" standalone="no"?>
<!DOCTYPE svg PUBLIC "-//W3C//DTD SVG 1.1//EN" "http://www.w3.org/Graphics/SVG/1.1/DTD/svg11.dtd">
<svg width="100%" height="100%" viewBox="0 0 16 16" version="1.1" xmlns="http://www.w3.org/2000/svg" xmlns:xlink="http://www.w3.org/1999/xlink" xml:space="preserve" xmlns:serif="http://www.serif.com/" style="fill-rule:evenodd;clip-rule:evenodd;stroke-linejoin:round;stroke-miterlimit:2;">
    <g transform="matrix(1,0,0,1,-4,-4)">
        <g>
            <path d="M9.5,4L5.5,4C4.672,4 4,4.672 4,5.5L4,9.5C4,10.328 4.672,11 5.5,11L9.5,11C10.328,11 11,10.328 11,9.5L11,5.5C11,4.672 10.328,4 9.5,4Z" style="fill:rgb(154,163,178);fill-rule:nonzero;"/>
            <path d="M5.5,13L9.5,13C10.328,13 11,13.672 11,14.5L11,18.5C11,19.328 10.328,20 9.5,20L5.5,20C4.672,20 4,19.328 4,18.5L4,14.5C4,13.672 4.672,13 5.5,13ZM14.5,4L18.5,4C19.328,4 20,4.672 20,5.5L20,9.5C20,10.328 19.328,11 18.5,11L14.5,11C13.672,11 13,10.328 13,9.5L13,5.5C13,4.672 13.672,4 14.5,4ZM14.5,13L18.5,13C19.328,13 20,13.672 20,14.5L20,18.5C20,19.328 19.328,20 18.5,20L14.5,20C13.672,20 13,19.328 13,18.5L13,14.5C13,13.672 13.672,13 14.5,13Z" style="fill:rgb(154,163,178);"/>
        </g>
    </g>
</svg>
