<svg width="16" height="16" viewBox="0 0 16 16" fill="none" xmlns="http://www.w3.org/2000/svg">
<path d="M8.01593 0C7.98386 0 8.01593 0 8.01593 0C3.59113 0 0 3.584 0 8C0 12.416 3.59113 16 7.98386 16C12.4087 16 15.9998 12.416 15.9998 8C16.0319 3.584 12.4407 0 8.01593 0ZM8.33656 4.8C9.20228 4.768 10.0039 4.672 10.8055 4.48C11.0299 5.408 11.1902 6.496 11.2223 7.712H8.33656V4.8ZM8.33656 4.16V0.704C9.20228 0.928 10.068 2.08 10.6451 3.872C9.90768 4.032 9.13815 4.128 8.33656 4.16ZM7.69529 0.672V4.16C6.8937 4.128 6.12417 4.032 5.3867 3.84C5.93178 2.048 6.82957 0.896 7.69529 0.672ZM7.69529 4.8V7.68H4.77749C4.80956 6.496 4.93781 5.408 5.19432 4.448C5.99591 4.64 6.82957 4.768 7.69529 4.8ZM4.13622 7.68H0.641274C0.705401 6.048 1.31461 4.512 2.30859 3.328C3.01399 3.712 3.78352 4.032 4.58511 4.288C4.3286 5.312 4.16828 6.464 4.13622 7.68ZM4.13622 8.32C4.16828 9.536 4.3286 10.688 4.58511 11.712C3.78352 11.968 3.04605 12.288 2.30859 12.672C1.34668 11.488 0.705401 9.952 0.641274 8.32H4.13622ZM4.77749 8.32H7.69529V11.2C6.82957 11.232 5.99591 11.328 5.19432 11.52C4.96987 10.592 4.80956 9.504 4.77749 8.32ZM7.69529 11.84V15.296C6.82957 15.072 5.93178 13.92 5.3867 12.128C6.12417 11.968 6.8937 11.872 7.69529 11.84ZM8.33656 15.296V11.84C9.13815 11.872 9.90768 11.968 10.6451 12.16C10.068 13.92 9.20228 15.072 8.33656 15.296ZM8.33656 11.2V8.32H11.2223C11.1902 9.504 11.062 10.592 10.8055 11.552C10.0039 11.36 9.20228 11.232 8.33656 11.2ZM11.8636 8.32H15.3906C15.3264 9.952 14.7172 11.456 13.7233 12.672C13.0179 12.288 12.2483 11.968 11.4467 11.712C11.7033 10.688 11.8315 9.536 11.8636 8.32ZM11.8636 7.68C11.8315 6.464 11.6712 5.312 11.4147 4.288C12.2163 4.032 12.9858 3.712 13.6912 3.328C14.6852 4.512 15.2944 6.016 15.3585 7.68H11.8636ZM13.2744 2.848C12.6331 3.2 11.9598 3.456 11.2544 3.68C10.8696 2.464 10.3566 1.504 9.7153 0.864C11.094 1.184 12.3125 1.888 13.2744 2.848ZM6.28449 0.864C5.67528 1.504 5.13019 2.496 4.77749 3.68C4.07209 3.456 3.39875 3.2 2.78954 2.848C3.71939 1.888 4.90575 1.184 6.28449 0.864ZM2.75748 13.152C3.39875 12.8 4.07209 12.544 4.74543 12.32C5.13019 13.504 5.64321 14.496 6.25242 15.136C4.90575 14.816 3.71939 14.112 2.75748 13.152ZM9.74736 15.168C10.3566 14.528 10.9017 13.536 11.2864 12.32C11.9918 12.544 12.6652 12.8 13.3064 13.152C12.3125 14.112 11.094 14.816 9.74736 15.168Z" fill="black"/>
</svg>
