<svg width="12" height="12" viewBox="0 0 12 12" fill="none" xmlns="http://www.w3.org/2000/svg">
<path fill-rule="evenodd" clip-rule="evenodd" d="M3.51539 6.25C3.60796 7.74891 4.11338 9.11723 4.90567 10.116C3.10611 9.6664 1.73566 8.13335 1.52746 6.25H3.51539ZM4.51737 6.25C4.62302 7.76132 5.2014 9.04216 6.00019 9.84361C6.79885 9.04206 7.3771 7.76125 7.48266 6.25H4.51737ZM7.48263 5.25H4.51734C4.6229 3.73875 5.20115 2.45793 5.99981 1.65638C6.7986 2.45784 7.37698 3.73868 7.48263 5.25ZM8.48463 6.25C8.39214 7.74882 7.88684 9.11709 7.09471 10.1159C8.89408 9.66619 10.2644 8.13321 10.4725 6.25H8.48463ZM10.4725 5.25H8.48461C8.39204 3.75109 7.88662 2.38277 7.09433 1.38399C8.89389 1.8336 10.2643 3.36665 10.4725 5.25ZM3.51537 5.25H1.52746C1.73564 3.36679 3.10592 1.83381 4.90529 1.38409C4.11315 2.38291 3.60786 3.75118 3.51537 5.25ZM11.5 5.75C11.5 8.78757 9.03757 11.25 6 11.25C2.96243 11.25 0.5 8.78757 0.5 5.75C0.5 2.71243 2.96243 0.25 6 0.25C9.03757 0.25 11.5 2.71243 11.5 5.75Z" fill="currentColor"/>
</svg>
