<?xml version="1.0" encoding="UTF-8" standalone="no"?>
<!DOCTYPE svg PUBLIC "-//W3C//DTD SVG 1.1//EN" "http://www.w3.org/Graphics/SVG/1.1/DTD/svg11.dtd">
<svg width="100%" height="100%" viewBox="0 0 63 63" version="1.1" xmlns="http://www.w3.org/2000/svg" xmlns:xlink="http://www.w3.org/1999/xlink" xml:space="preserve" xmlns:serif="http://www.serif.com/" style="fill-rule:evenodd;clip-rule:evenodd;stroke-linejoin:round;stroke-miterlimit:2;">
    <g transform="matrix(1,0,0,1,-769.125,-371.002)">
        <path d="M776.07,426.558L828.153,426.558C830.071,426.558 831.625,428.112 831.625,430.03C831.625,431.948 830.071,433.502 828.153,433.502L772.597,433.502C770.68,433.502 769.125,431.948 769.125,430.03L769.125,374.475C769.125,372.557 770.68,371.002 772.597,371.002C774.515,371.002 776.07,372.557 776.07,374.475L776.07,426.558ZM789.02,411.572C787.708,412.971 785.511,413.042 784.112,411.73C782.713,410.418 782.642,408.221 783.953,406.822L796.974,392.933C798.243,391.58 800.35,391.463 801.761,392.667L812.038,401.436L825.428,384.476C826.616,382.971 828.799,382.714 830.305,383.902C831.81,385.09 832.067,387.274 830.879,388.779L815.254,408.571C814.033,410.117 811.773,410.339 810.274,409.06L799.774,400.1L789.02,411.572Z" style="fill:rgb(154,163,178);fill-rule:nonzero;"/>
    </g>
</svg>
