<svg width="17" height="17" viewBox="0 0 17 17" fill="none" xmlns="http://www.w3.org/2000/svg">
<path d="M3.68359 12.5555C3.68359 12.5555 3.68359 7.22964 3.68359 4.23458C3.68359 3.13843 4.55185 2.25 5.62275 2.25C7.9954 2.25 11.9605 2.25 14.1021 2.25C14.4947 2.25 14.8714 2.40823 15.1491 2.6934C15.4267 2.97856 15.5827 3.36263 15.5827 3.76483C15.5827 4.66483 15.5827 5.63238 15.5827 5.63238H14.319" stroke="currentColor" stroke-width="1.2" stroke-miterlimit="1.5" stroke-linecap="round" stroke-linejoin="round"/>
<path d="M14.2596 2.25H14.2593C13.447 2.25 12.7883 2.92416 12.7883 3.75493C12.7883 6.41372 12.7883 11.8912 12.7883 14.3687C12.7883 15.0676 12.2349 15.6346 11.5523 15.6346H11.5521C10.8693 15.6346 10.3159 15.0676 10.3159 14.3687C10.3159 13.5198 10.3159 12.5555 10.3159 12.5555H1.42188C1.42188 12.5555 1.42188 13.2528 1.42188 13.9962C1.42188 14.461 1.60216 14.9077 1.92328 15.2357C2.24457 15.5654 2.67999 15.75 3.13423 15.75C5.34382 15.75 8.90761 15.75 8.90761 15.75" stroke="currentColor" stroke-width="1.2" stroke-miterlimit="1.5" stroke-linecap="round" stroke-linejoin="round"/>
<path d="M5.94531 7.30859H10.4649" stroke="currentColor" stroke-width="1.2" stroke-miterlimit="1.5" stroke-linecap="round" stroke-linejoin="round"/>
<path d="M5.94531 9.83301H9.63051" stroke="currentColor" stroke-width="1.2" stroke-miterlimit="1.5" stroke-linecap="round" stroke-linejoin="round"/>
<path d="M5.94531 4.7832H7.94944" stroke="currentColor" stroke-width="1.2" stroke-miterlimit="1.5" stroke-linecap="round" stroke-linejoin="round"/>
</svg>
