<svg width="15" height="15" viewBox="0 0 15 15" fill="none" xmlns="http://www.w3.org/2000/svg">
<path fill-rule="evenodd" clip-rule="evenodd" d="M1.81975 0.58667C0.719698 0.58667 0 1.30877 0 2.25749C0 3.18607 0.698834 3.92903 1.77754 3.92903H1.79841C2.92004 3.92903 3.61744 3.18607 3.61744 2.25749C3.59609 1.30877 2.92004 0.58667 1.81975 0.58667ZM15.0001 9.37457V14.9211H11.7844V9.74629C11.7844 8.44695 11.3201 7.55962 10.1558 7.55962C9.26723 7.55962 8.73939 8.15701 8.50628 8.73545C8.42163 8.94217 8.3998 9.22924 8.3998 9.51918V14.9209H5.18383C5.18383 14.9209 5.22699 6.15643 5.18383 5.24919H8.40004V6.61976C8.39701 6.62481 8.39341 6.62981 8.38983 6.63475L8.38981 6.63478C8.38576 6.6404 8.38176 6.64594 8.3787 6.65142H8.40004V6.61976C8.8274 5.96218 9.58955 5.02209 11.2983 5.02209C13.4139 5.02209 15.0001 6.4044 15.0001 9.37457ZM3.40532 14.9205H0.190543V5.24862H3.40532V14.9205Z" fill="#243F5F"/>
</svg>
