<svg width="30" height="30" viewBox="0 0 30 30" fill="none" xmlns="http://www.w3.org/2000/svg">
    <path fill-rule="evenodd" clip-rule="evenodd" d="M14.6572 25.4313C12.262 23.3364 6.25 17.6295 6.25 13.125C6.25 7.5 10 3.75 15.625 3.75C21.25 3.75 25 8.4375 25 13.125C25 16.9009 18.9169 23.1099 16.5509 25.3822C16.0212 25.8909 15.2099 25.9147 14.6572 25.4313ZM15.625 15C17.3509 15 18.75 13.6009 18.75 11.875C18.75 10.1491 17.3509 8.75 15.625 8.75C13.8991 8.75 12.5 10.1491 12.5 11.875C12.5 13.6009 13.8991 15 15.625 15Z" fill="#B0B7C3"/>
</svg>