<svg width="30" height="30" viewBox="0 0 30 30" fill="none" xmlns="http://www.w3.org/2000/svg">
    <path opacity="0.3" d="M15 13.75C12.2386 13.75 10 11.5114 10 8.75C10 5.98858 12.2386 3.75 15 3.75C17.7614 3.75 20 5.98858 20 8.75C20 11.5114 17.7614 13.75 15 13.75Z" fill="#B0B7C3"/>
    <path d="M3.75081 25.249C4.23532 19.2831 9.07739 16.25 14.9792 16.25C20.964 16.25 25.8811 19.1165 26.2474 25.25C26.262 25.4943 26.2474 26.25 25.3084 26.25C20.6764 26.25 13.7934 26.25 4.65938 26.25C4.34589 26.25 3.72442 25.574 3.75081 25.249Z" fill="#B0B7C3"/>
</svg>