<svg width="17" height="17" viewBox="0 0 17 17" fill="none" xmlns="http://www.w3.org/2000/svg">
<path d="M8 2.52297C8.31162 1.42224 9.30319 1 10.4715 1C11.6403 1 12.6343 1.42224 12.9429 2.52297C13.1113 3.12903 13.0886 3.54236 12.8826 4.16291C12.6988 4.72274 13.0528 5.11546 12.8492 5.94657C12.6814 6.63007 12.4283 7.0913 12.1573 7.60769C11.8081 8.26946 11.9961 8.9446 12.5268 9.18246C13.4557 9.59412 13.3769 9.53395 14.458 9.92834C15.009 10.13 16 10.7244 16 12" stroke="currentColor" stroke-width="1.2" stroke-miterlimit="2" stroke-linecap="round" stroke-linejoin="round"/>
<path d="M4.45992 10.7558H1.59371C1.49485 10.7558 1.29676 10.6859 1.1979 10.5589C1.00019 10.4329 1 10.2618 1 10.0831C1 8.87436 1 6.35032 1 5.14158C1 4.9629 1.00019 4.79176 1.1979 4.66583C1.29676 4.53882 1.49485 4.46777 1.59371 4.46777C3.27424 4.46777 7.62367 4.46777 9.3042 4.46777C9.50191 4.46777 9.60077 4.53882 9.79848 4.66583C9.89733 4.79176 9.99638 4.9629 9.99638 5.14158C9.99638 6.35032 9.99638 8.87436 9.99638 10.0831C9.99638 10.2618 9.89733 10.4329 9.79848 10.5589C9.60077 10.6859 9.50191 10.7558 9.3042 10.7558C8.31565 10.7558 6.53646 10.7558 6.53646 10.7558" stroke="currentColor" stroke-width="1.2" stroke-miterlimit="10" stroke-linecap="round" stroke-linejoin="round"/>
<path d="M4.36328 13.9809C4.36328 13.9809 4.36328 9.9037 4.36328 7.94414C4.36328 7.67084 4.55575 7.40963 4.74879 7.21721C4.94182 7.02385 5.13505 6.91602 5.4246 6.91602C5.71415 6.91602 6.00352 7.02385 6.19656 7.21721C6.38959 7.40963 6.48592 7.67084 6.48592 7.94414C6.48592 9.9037 6.48592 13.9809 6.48592 13.9809" stroke="currentColor" stroke-width="1.2" stroke-miterlimit="10" stroke-linecap="round" stroke-linejoin="round"/>
<path d="M1 16V14.6018C1 14.2695 1.30413 14 1.68486 14C4.19765 14 12.8024 14 15.3151 14C15.6959 14 16 14.2695 16 14.6018C16 15.1905 16 16 16 16" stroke="currentColor" stroke-width="1.2" stroke-miterlimit="10" stroke-linecap="round" stroke-linejoin="round"/>
</svg>
