<svg width="17" height="18" viewBox="0 0 17 18" fill="none" xmlns="http://www.w3.org/2000/svg">
<path fill-rule="evenodd" clip-rule="evenodd" d="M7.7425 1.33741C7.94342 1.12207 8.21139 1 8.50159 1C8.7918 1 9.05955 1.12207 9.26046 1.33741L10.1981 2.34829C10.2874 2.45322 10.399 2.5314 10.5329 2.57597C10.6669 2.62032 10.8232 2.62947 10.9572 2.60249L12.2741 2.34257C12.5643 2.28725 12.8546 2.35423 13.1002 2.52797C13.3234 2.70148 13.4797 2.96597 13.5244 3.25903L13.6807 4.63476C13.703 4.7774 13.7475 4.91342 13.8368 5.02978C13.9261 5.14591 14.0378 5.23917 14.1494 5.30044L15.3772 5.89069C15.6451 6.01642 15.846 6.24707 15.9353 6.5278C16.0246 6.80875 15.9798 7.11484 15.8459 7.37362L15.1987 8.58863C15.1317 8.71459 15.087 8.8561 15.087 8.99989C15.087 9.14391 15.1317 9.28518 15.1987 9.41137L15.8459 10.6264C15.9798 10.8852 16.0246 11.1913 15.9353 11.4722C15.846 11.7529 15.6451 11.9836 15.3772 12.1093L14.1494 12.6996C14.0378 12.7608 13.9261 12.8539 13.8368 12.9702C13.7475 13.0866 13.703 13.2224 13.6807 13.3652L13.5244 14.741C13.4797 15.0338 13.3234 15.2985 13.1002 15.472C12.8546 15.6455 12.5643 15.7128 12.2741 15.6574L10.9572 15.3975C10.8232 15.3705 10.6669 15.3797 10.5329 15.424C10.399 15.4686 10.2874 15.5468 10.1981 15.6517L9.26046 16.6626C9.05955 16.8779 8.7918 17 8.50159 17C8.21139 17 7.94342 16.8779 7.7425 16.6626L6.80487 15.6517C6.71558 15.5468 6.60396 15.4686 6.47002 15.424C6.33608 15.3797 6.17994 15.3705 6.046 15.3975L4.72883 15.6574C4.43862 15.7128 4.14837 15.6455 3.90281 15.472C3.67958 15.2985 3.52344 15.0338 3.47879 14.741L3.32249 13.3652C3.30016 13.2224 3.25547 13.0866 3.16618 12.9702C3.07688 12.8539 2.9654 12.7608 2.85378 12.6996L1.62598 12.1093C1.3581 11.9836 1.15719 11.7529 1.0679 11.4722C0.978601 11.1913 1.00079 10.8852 1.15706 10.6264L1.80453 9.41137C1.8715 9.28518 1.89369 9.14391 1.89369 8.99989C1.89369 8.8561 1.8715 8.71459 1.80453 8.58863L1.15706 7.37362C1.00079 7.11484 0.978601 6.80875 1.0679 6.5278C1.15719 6.24707 1.3581 6.01642 1.62598 5.89069L2.85378 5.30044C2.9654 5.23917 3.07688 5.14591 3.16618 5.02978C3.25547 4.91342 3.30016 4.7774 3.32249 4.63476L3.47879 3.25903C3.52344 2.96597 3.67958 2.70148 3.90281 2.52797C4.14837 2.35423 4.43862 2.28725 4.72883 2.34257L6.046 2.60249C6.17994 2.62947 6.33608 2.62032 6.47002 2.57597C6.60396 2.5314 6.71558 2.45322 6.80487 2.34829L7.7425 1.33741Z" stroke="currentColor" stroke-width="1.2" stroke-miterlimit="10" stroke-linecap="round" stroke-linejoin="round"/>
<path d="M8.46726 13.727C11.0163 13.727 13.0821 11.611 13.0821 9.00073C13.0821 6.39046 11.0163 4.27441 8.46726 4.27441C5.91826 4.27441 3.85156 6.39046 3.85156 9.00073C3.85156 11.611 5.91826 13.727 8.46726 13.727Z" stroke="currentColor" stroke-width="1.2" stroke-miterlimit="10" stroke-linecap="round" stroke-linejoin="round"/>
<path d="M6.18359 9.22795L7.89457 10.6982L10.6839 7.6123" stroke="currentColor" stroke-width="1.2" stroke-miterlimit="10" stroke-linecap="round" stroke-linejoin="round"/>
</svg>
