<svg width="30" height="30" viewBox="0 0 30 30" fill="none" xmlns="http://www.w3.org/2000/svg">
    <path opacity="0.3" fill-rule="evenodd" clip-rule="evenodd" d="M2.93568 13.6176C2.34989 14.2034 2.34989 15.1532 2.93568 15.739L6.11766 18.9209C6.70344 19.5067 7.65319 19.5067 8.23898 18.9209L11.421 15.739C12.0067 15.1532 12.0067 14.2034 11.421 13.6176L8.23898 10.4357C7.65319 9.84988 6.70344 9.84988 6.11766 10.4357L2.93568 13.6176ZM17.9357 13.6176C17.3499 14.2034 17.3499 15.1532 17.9357 15.739L21.1177 18.9209C21.7034 19.5067 22.6532 19.5067 23.239 18.9209L26.421 15.739C27.0067 15.1532 27.0067 14.2034 26.421 13.6176L23.239 10.4357C22.6532 9.84988 21.7034 9.84988 21.1177 10.4357L17.9357 13.6176Z" fill="#FF5630"/>
    <path fill-rule="evenodd" clip-rule="evenodd" d="M10.4357 6.11764C9.84989 6.70343 9.84989 7.65318 10.4357 8.23896L13.6177 11.4209C14.2034 12.0067 15.1532 12.0067 15.739 11.4209L18.921 8.23896C19.5067 7.65318 19.5067 6.70343 18.921 6.11764L15.739 2.93566C15.1532 2.34988 14.2034 2.34988 13.6177 2.93566L10.4357 6.11764ZM10.4357 21.1176C9.84989 21.7034 9.84989 22.6532 10.4357 23.239L13.6177 26.4209C14.2034 27.0067 15.1532 27.0067 15.739 26.4209L18.921 23.239C19.5067 22.6532 19.5067 21.7034 18.921 21.1176L15.739 17.9357C15.1532 17.3499 14.2034 17.3499 13.6177 17.9357L10.4357 21.1176Z" fill="#FF5630"/>
</svg>