<svg width="17" height="17" viewBox="0 0 17 17" fill="none" xmlns="http://www.w3.org/2000/svg">
<path d="M5.8108 10.9658C4.56304 11.4892 3.795 11.7966 2.2593 12.4258C2.06734 12.5018 1.875 12.6846 1.875 12.8878C1.875 13.091 2.06734 13.2737 2.2593 13.3497C3.795 13.9789 6.57827 15.088 7.82603 15.6114C8.30594 15.7967 8.78584 15.7958 9.26575 15.608C10.6095 15.0837 13.2968 13.9772 14.8325 13.3488C15.0244 13.2728 15.1212 13.0901 15.1212 12.8878C15.1212 12.6854 15.0244 12.5027 14.8325 12.4267L11.2819 10.9658" stroke="currentColor" stroke-width="1.199" stroke-miterlimit="10" stroke-linecap="round" stroke-linejoin="round"/>
<path d="M6.00295 7.0791C4.65921 7.60163 3.795 7.95425 2.2593 8.58351C2.06734 8.6595 1.875 8.84223 1.875 9.04544C1.875 9.24865 2.06734 9.43135 2.2593 9.50734C3.795 10.1366 6.57827 11.2457 7.82603 11.7691C8.30594 11.9544 8.78584 11.9535 9.26575 11.7657C10.6095 11.2414 13.2968 10.1349 14.8325 9.50648C15.0244 9.43049 15.1212 9.24779 15.1212 9.04544C15.1212 8.84309 15.0244 8.66036 14.8325 8.58437C13.2968 7.95597 12.4331 7.60334 11.1854 7.0791" stroke="currentColor" stroke-width="1.199" stroke-miterlimit="10" stroke-linecap="round" stroke-linejoin="round"/>
<path fill-rule="evenodd" clip-rule="evenodd" d="M14.8325 5.5726C15.0244 5.49661 15.1212 5.31391 15.1212 5.11156C15.1212 4.90921 15.0244 4.72648 14.8325 4.6505C13.2968 4.02209 10.6095 2.91555 9.26575 2.39131C8.78584 2.20433 8.30594 2.20262 7.82603 2.3879C6.57827 2.91129 3.795 4.02038 2.2593 4.64964C2.06734 4.72562 1.875 4.90835 1.875 5.11156C1.875 5.31477 2.06734 5.49747 2.2593 5.57346C3.795 6.20272 6.57827 7.31181 7.82603 7.8352C8.30594 8.02048 8.78584 8.01962 9.26575 7.83179C10.6095 7.30754 13.2968 6.20101 14.8325 5.5726Z" stroke="currentColor" stroke-width="1.199" stroke-miterlimit="10" stroke-linecap="round" stroke-linejoin="round"/>
</svg>
