<svg width="70" height="70" viewBox="0 0 70 70" fill="none" xmlns="http://www.w3.org/2000/svg">
    <circle cx="35" cy="35" r="35" fill="#FDF4E0"/>
    <path opacity="0.3" d="M39.7767 44.8065C38.9631 43.9929 38.9631 42.6738 39.7767 41.8602C40.5903 41.0466 41.9094 41.0466 42.723 41.8602L51.0563 50.1935C51.8699 51.0071 51.8699 52.3262 51.0563 53.1398C50.2427 53.9534 48.9236 53.9534 48.11 53.1398L39.7767 44.8065Z" fill="#F1C823"/>
    <path fill-rule="evenodd" clip-rule="evenodd" d="M18.3335 32.9167C18.3335 40.9708 24.8627 47.5 32.9168 47.5C40.971 47.5 47.5002 40.9708 47.5002 32.9167C47.5002 24.8625 40.971 18.3333 32.9168 18.3333C24.8627 18.3333 18.3335 24.8625 18.3335 32.9167ZM43.3335 32.9167C43.3335 38.6696 38.6698 43.3333 32.9168 43.3333C27.1639 43.3333 22.5002 38.6696 22.5002 32.9167C22.5002 27.1637 27.1639 22.5 32.9168 22.5C38.6698 22.5 43.3335 27.1637 43.3335 32.9167Z" fill="#F1C823"/>
    <path opacity="0.3" fill-rule="evenodd" clip-rule="evenodd" d="M32.9166 30.9722C31.5359 30.9722 30.4166 29.8529 30.4166 28.4722C30.4166 27.0915 31.5359 25.9722 32.9166 25.9722C34.2974 25.9722 35.4166 27.0915 35.4166 28.4722C35.4166 29.8529 34.2974 30.9722 32.9166 30.9722ZM26.667 37.8466C26.9361 34.1179 29.6262 32.2222 32.9049 32.2222C36.2298 32.2222 38.9616 34.0138 39.1651 37.8472C39.1732 37.9999 39.1651 38.4722 38.6434 38.4722H27.1717C26.9976 38.4722 26.6523 38.0497 26.667 37.8466Z" fill="#F1C823"/>
</svg>