<svg width="17" height="16" viewBox="0 0 17 16" fill="none" xmlns="http://www.w3.org/2000/svg">
<path fill-rule="evenodd" clip-rule="evenodd" d="M16.4824 7.75391C16.4824 12.0363 13.0109 15.5078 8.72852 15.5078C4.44615 15.5078 0.974609 12.0363 0.974609 7.75391C0.974609 3.47154 4.44615 0 8.72852 0C13.0109 0 16.4824 3.47154 16.4824 7.75391ZM9.00525 5.7238C8.25106 6.03749 6.74376 6.68675 4.48334 7.67158C4.11628 7.81754 3.924 7.96034 3.9065 8.09997C3.87692 8.33594 4.17242 8.42886 4.57483 8.5554C4.62956 8.57261 4.68628 8.59044 4.74442 8.60934C5.14032 8.73803 5.67288 8.88859 5.94973 8.89457C6.20086 8.89999 6.48116 8.79646 6.79061 8.58397C8.90259 7.15832 9.99281 6.43773 10.0613 6.42219C10.1095 6.41123 10.1765 6.39745 10.2218 6.43775C10.2671 6.47805 10.2627 6.55436 10.2579 6.57484C10.2286 6.69964 9.06863 7.77805 8.46835 8.33613C8.28121 8.5101 8.14847 8.63351 8.12133 8.6617C8.06055 8.72483 7.9986 8.78455 7.93905 8.84195C7.57125 9.19652 7.29544 9.46241 7.95432 9.89661C8.27096 10.1053 8.52433 10.2778 8.7771 10.4499C9.05316 10.6379 9.32849 10.8254 9.68474 11.059C9.7755 11.1185 9.86218 11.1803 9.94661 11.2404C10.2679 11.4695 10.5565 11.6752 10.9131 11.6424C11.1203 11.6234 11.3343 11.4285 11.443 10.8475C11.6998 9.47425 12.2048 6.49888 12.3215 5.27281C12.3317 5.16539 12.3188 5.02791 12.3085 4.96756C12.2982 4.90721 12.2766 4.82123 12.1981 4.75758C12.1052 4.68219 11.9618 4.6663 11.8977 4.66743C11.606 4.67256 11.1586 4.82815 9.00525 5.7238Z" fill="currentColor"/>
</svg>
