<?xml version="1.0" encoding="UTF-8" standalone="no"?>
<!DOCTYPE svg PUBLIC "-//W3C//DTD SVG 1.1//EN" "http://www.w3.org/Graphics/SVG/1.1/DTD/svg11.dtd">
<svg width="100%" height="100%" viewBox="0 0 70 73" version="1.1" xmlns="http://www.w3.org/2000/svg" xmlns:xlink="http://www.w3.org/1999/xlink" xml:space="preserve" xmlns:serif="http://www.serif.com/" style="fill-rule:evenodd;clip-rule:evenodd;stroke-linejoin:round;stroke-miterlimit:2;">
    <g transform="matrix(1,0,0,1,-949.027,-365.794)">
        <g transform="matrix(1,0,0,1,221.789,43.1838)">
            <path d="M727.238,364.277C727.238,362.541 728.974,360.805 730.71,360.805C732.446,360.805 734.182,362.541 734.182,364.277L734.182,381.638C734.182,385.474 737.291,388.583 741.127,388.583L782.793,388.583C786.629,388.583 789.738,385.474 789.738,381.638L789.738,364.277C789.738,362.359 791.292,360.805 793.21,360.805C795.128,360.805 796.682,362.359 796.682,364.277L796.682,381.638C796.682,389.309 790.464,395.527 782.793,395.527L741.127,395.527C733.456,395.527 727.238,389.309 727.238,381.638L727.238,364.277ZM758.487,333.879L746.921,344.289C745.496,345.571 743.3,345.456 742.018,344.03C740.735,342.605 740.85,340.41 742.276,339.127L759.637,323.502C761.009,322.266 763.109,322.322 764.415,323.627L781.776,340.989C783.132,342.345 783.132,344.543 781.776,345.899C780.42,347.255 778.221,347.255 776.865,345.899L765.432,334.465L765.432,371.222C765.432,373.139 763.877,374.694 761.959,374.694C760.042,374.694 758.487,373.139 758.487,371.222L758.487,333.879Z" style="fill:rgb(154,163,178);fill-rule:nonzero;"/>
        </g>
    </g>
</svg>
