<svg width="20" height="20" viewBox="0 0 20 20" fill="none" xmlns="http://www.w3.org/2000/svg">
<path opacity="0.3" d="M1.66675 10.8333C1.66675 10.4167 2.08341 10 2.50008 10C2.91675 10 3.33341 10.4167 3.33341 10.8333C3.33341 11.1111 3.33341 12.5 3.33341 15C3.33341 15.9205 4.07961 16.6667 5.00008 16.6667H15.0001C15.9206 16.6667 16.6667 15.9205 16.6667 15V10.8333C16.6667 10.3731 17.0398 10 17.5001 10C17.9603 10 18.3334 10.3731 18.3334 10.8333V15C18.3334 16.8409 16.841 18.3333 15.0001 18.3333H5.00008C3.15913 18.3333 1.66675 16.8409 1.66675 15C1.66675 12.5 1.66675 11.1111 1.66675 10.8333Z" fill="white"/>
<path opacity="0.3" d="M9.16658 2.49999C9.16658 2.03975 9.53968 1.66666 9.99992 1.66666C10.4602 1.66666 10.8333 2.03975 10.8333 2.49999L10.8333 12.5C10.8333 12.9602 10.4602 13.3333 9.99992 13.3333C9.53968 13.3333 9.16658 12.9602 9.16658 12.5L9.16658 2.49999Z" fill="white"/>
<path d="M13.5774 6.4226C13.9028 6.74804 14.4305 6.74804 14.7559 6.4226C15.0814 6.09716 15.0814 5.56953 14.7559 5.24409L10.5893 1.07742C10.2759 0.764021 9.77197 0.75077 9.44253 1.04727L5.27586 4.79727C4.93377 5.10515 4.90604 5.63206 5.21392 5.97415C5.5218 6.31624 6.04871 6.34397 6.3908 6.03609L9.9698 2.81499L13.5774 6.4226Z" fill="white"/>
</svg>
