<svg width="24" height="24" viewBox="0 0 24 24" fill="none" xmlns="http://www.w3.org/2000/svg">
<g clip-path="url(#clip0_513_8611)">
<path d="M11.8485 23.6912C18.3902 23.6912 23.6932 18.3881 23.6932 11.8465C23.6932 5.30493 18.3902 0.00195312 11.8485 0.00195312C5.30694 0.00195312 0.00390625 5.30493 0.00390625 11.8465C0.00390625 18.3881 5.30694 23.6912 11.8485 23.6912Z" fill="#EDEDED"/>
<path fill-rule="evenodd" clip-rule="evenodd" d="M2.78906 19.477C3.08156 19.4057 3.34029 19.3457 3.42279 19.3269C5.21529 18.9294 6.86914 18.3556 8.40289 17.6281C9.29164 17.2006 9.60652 15.9894 9.02527 14.8006C8.56777 13.8744 8.14416 13.0457 7.86291 11.8194C7.52166 10.3269 8.11777 9.6219 7.80652 8.6169C7.46152 7.50315 7.42401 6.76071 7.70526 5.67321C8.22651 3.69697 9.88777 2.93945 11.8453 2.93945C13.8028 2.93945 15.4678 3.69697 15.9853 5.67321C16.2665 6.76071 16.229 7.50315 15.884 8.6169C15.5765 9.6219 16.1691 10.3269 15.8278 11.8194C15.5466 13.0457 15.1229 13.8744 14.6691 14.8006C14.0841 15.9894 14.3991 17.2006 15.2878 17.6281C16.8441 18.3669 18.5278 18.9482 20.354 19.3457C20.4102 19.3607 20.6279 19.4057 20.9092 19.4657C18.7342 22.0457 15.479 23.6882 11.8453 23.6882C8.21527 23.6882 4.96406 22.0532 2.78906 19.477Z" fill="#243F5F"/>
</g>
<defs>
<clipPath id="clip0_513_8611">
<rect width="24" height="24" fill="white"/>
</clipPath>
</defs>
</svg>
