<svg width="25" height="24" viewBox="0 0 25 24" fill="none" xmlns="http://www.w3.org/2000/svg">
<path opacity="0.3" fill-rule="evenodd" clip-rule="evenodd" d="M13.5 11V9H15.5V11H13.5ZM13.5 13V11H11.5V9H13.5V7.5C13.5 5.567 15.067 4 17 4C18.933 4 20.5 5.567 20.5 7.5C20.5 9.433 18.933 11 17 11H15.5V13H13.5ZM13.5 15V13H11.5V11H9.5V9H11.5V7.5C11.5 5.567 9.933 4 8 4C6.067 4 4.5 5.567 4.5 7.5C4.5 9.433 6.067 11 8 11H9.5V13H8C6.067 13 4.5 14.567 4.5 16.5C4.5 18.433 6.067 20 8 20C9.933 20 11.5 18.433 11.5 16.5V15H13.5ZM15.5 15H13.5V16.5C13.5 18.433 15.067 20 17 20C18.933 20 20.5 18.433 20.5 16.5C20.5 14.567 18.933 13 17 13H15.5V15ZM15.5 15H17C17.8284 15 18.5 15.6716 18.5 16.5C18.5 17.3284 17.8284 18 17 18C16.1716 18 15.5 17.3284 15.5 16.5V15ZM9.5 15V13H11.5V15H9.5ZM9.5 15H8C7.17157 15 6.5 15.6716 6.5 16.5C6.5 17.3284 7.17157 18 8 18C8.82843 18 9.5 17.3284 9.5 16.5V15ZM9.5 9V7.5C9.5 6.67157 8.82843 6 8 6C7.17157 6 6.5 6.67157 6.5 7.5C6.5 8.32843 7.17157 9 8 9H9.5ZM15.5 9H17C17.8284 9 18.5 8.32843 18.5 7.5C18.5 6.67157 17.8284 6 17 6C16.1716 6 15.5 6.67157 15.5 7.5V9Z" fill="#F1C823"/>
<path fill-rule="evenodd" clip-rule="evenodd" d="M8 11C6.067 11 4.5 9.433 4.5 7.5C4.5 5.567 6.067 4 8 4C9.933 4 11.5 5.567 11.5 7.5V9H9.50027V7.5C9.50027 6.67157 8.8287 6 8.00027 6C7.17184 6 6.50027 6.67157 6.50027 7.5C6.50027 8.32843 7.17184 9 8.00027 9H9.50027V11H8Z" fill="#F1C823"/>
</svg>
