<?xml version="1.0" encoding="UTF-8" standalone="no"?>
<!DOCTYPE svg PUBLIC "-//W3C//DTD SVG 1.1//EN" "http://www.w3.org/Graphics/SVG/1.1/DTD/svg11.dtd">
<svg width="100%" height="100%" viewBox="0 0 20 15" version="1.1" xmlns="http://www.w3.org/2000/svg" xmlns:xlink="http://www.w3.org/1999/xlink" xml:space="preserve" xmlns:serif="http://www.serif.com/" style="fill-rule:evenodd;clip-rule:evenodd;stroke-linejoin:round;stroke-miterlimit:2;">
    <g transform="matrix(1,0,0,1,-2,-5)">
        <g>
            <path d="M9,10L9,19L10.153,19.384C11.376,19.792 12.658,20 13.947,20L17.541,20C18.971,20 20.202,18.991 20.482,17.588L21.232,13.842C21.619,11.905 20.061,10.129 18.09,10.261L14.5,10.5L14.821,6.969C14.917,5.912 14.084,5 13.023,5C12.388,5 11.8,5.333 11.474,5.877L9,10Z" style="fill:rgb(154,163,178);"/>
            <path d="M7,10C7,9.448 6.552,9 6,9L3,9C2.448,9 2,9.448 2,10L2,19C2,19.552 2.448,20 3,20L6,20C6.552,20 7,19.552 7,19L7,10Z" style="fill:rgb(154,163,178);"/>
        </g>
    </g>
</svg>
