<svg width="24" height="24" viewBox="0 0 24 24" fill="none" xmlns="http://www.w3.org/2000/svg">
<circle cx="20.5" cy="12.5" r="1.5" fill="#B0B7C3"/>
<path fill-rule="evenodd" clip-rule="evenodd" d="M11.5393 3.00001H20.0001C20.1335 3.00001 20.2639 3.01308 20.39 3.038L20.0465 1.7558C19.9035 1.22234 19.3552 0.905754 18.8217 1.0487L11.5393 3.00001Z" fill="#B0B7C3"/>
<path fill-rule="evenodd" clip-rule="evenodd" d="M4 4C2.89543 4 2 4.89543 2 6V18C2 19.1046 2.89543 20 4 20H20C21.1046 20 22 19.1046 22 18V15.6632C21.5454 15.8792 21.0368 16 20.5 16C18.567 16 17 14.433 17 12.5C17 10.567 18.567 9 20.5 9C21.0368 9 21.5454 9.12085 22 9.33682V6C22 4.89543 21.1046 4 20 4H4Z" fill="#B0B7C3"/>
</svg>
