<?xml version="1.0" encoding="UTF-8" standalone="no"?>
<!DOCTYPE svg PUBLIC "-//W3C//DTD SVG 1.1//EN" "http://www.w3.org/Graphics/SVG/1.1/DTD/svg11.dtd">
<svg width="100%" height="100%" viewBox="0 0 20 19" version="1.1" xmlns="http://www.w3.org/2000/svg" xmlns:xlink="http://www.w3.org/1999/xlink" xml:space="preserve" xmlns:serif="http://www.serif.com/" style="fill-rule:evenodd;clip-rule:evenodd;stroke-linejoin:round;stroke-miterlimit:2;">
    <g transform="matrix(1,0,0,1,-2,-1.01438)">
        <g>
            <circle cx="20.5" cy="12.5" r="1.5" style="fill:rgb(154,163,178);"/>
            <path d="M11.539,3L20,3C20.134,3 20.264,3.013 20.39,3.038L20.047,1.756C19.904,1.222 19.355,0.906 18.822,1.049L11.539,3Z" style="fill:rgb(154,163,178);"/>
            <path d="M4,4C2.895,4 2,4.895 2,6L2,18C2,19.105 2.895,20 4,20L20,20C21.105,20 22,19.105 22,18L22,15.663C21.545,15.879 21.037,16 20.5,16C18.567,16 17,14.433 17,12.5C17,10.567 18.567,9 20.5,9C21.037,9 21.545,9.121 22,9.337L22,6C22,4.895 21.105,4 20,4L4,4Z" style="fill:rgb(154,163,178);"/>
        </g>
    </g>
</svg>
