<svg width="17" height="17" viewBox="0 0 17 17" fill="none" xmlns="http://www.w3.org/2000/svg">
<path fill-rule="evenodd" clip-rule="evenodd" d="M6.19357 3.85963C6.19357 2.34705 7.41975 1.12087 8.93232 1.12087C10.4449 1.12087 11.6711 2.34706 11.6711 3.85963C11.6711 4.35661 11.5387 4.82268 11.3073 5.22449C11.2909 5.24773 11.2762 5.27227 11.2635 5.29793C10.7809 6.07838 9.91733 6.59839 8.93232 6.59839C7.41975 6.59839 6.19357 5.3722 6.19357 3.85963ZM11.2051 6.97945C10.5675 7.44469 9.78199 7.71925 8.93232 7.71925C7.71651 7.71925 6.63201 7.15709 5.92455 6.27852H3.6303C3.1847 6.27852 2.80605 6.63007 2.77182 7.10193C2.77474 7.12509 2.77624 7.1487 2.77624 7.17266V7.28719C2.83074 7.736 3.1992 8.06565 3.6303 8.06565H11.2051V6.97945ZM1.65538 7.34199C1.65078 7.28603 1.64844 7.22947 1.64844 7.17241C1.64844 6.07301 2.51807 5.15765 3.6303 5.15765H5.2964C5.15157 4.75201 5.0727 4.31503 5.0727 3.85963C5.0727 1.72802 6.80071 0 8.93232 0C11.0639 0 12.792 1.72802 12.792 3.85963C12.792 4.52588 12.6231 5.1527 12.326 5.69965V8.06695H13.8248C14.1343 8.06695 14.3852 8.31786 14.3852 8.62738V10.4347H14.7869C15.0965 10.4347 15.3474 10.6856 15.3474 10.9951V14.2395C15.3474 14.549 15.0965 14.7999 14.7869 14.7999H14.3852V16.4396C14.3852 16.7491 14.1343 17.0001 13.8248 17.0001H4.2689C3.55029 17.0001 2.93936 16.7083 2.45311 16.2267C1.9599 15.7383 1.65538 15.0674 1.65538 14.3539V7.34199ZM11.7332 9.18652C11.7459 9.18738 11.7588 9.18781 11.7717 9.18781H13.2643V10.4347H12.0045C11.3775 10.4347 10.8852 10.6744 10.4435 11.0366C10.4229 11.0536 10.4034 11.072 10.3854 11.0917C10.026 11.4847 9.77473 12.0283 9.77473 12.6173C9.77473 13.2062 10.026 13.7499 10.3854 14.1428C10.4034 14.1626 10.4229 14.181 10.4435 14.198C10.8852 14.5601 11.3775 14.7999 12.0045 14.7999H13.2643V15.8792H4.2689C3.88183 15.8792 3.54535 15.7309 3.24183 15.4303C2.94527 15.1366 2.77624 14.7466 2.77624 14.3539V8.99198C3.03352 9.11652 3.32262 9.18652 3.6303 9.18652H11.7332ZM8.93305 3.08202C8.50351 3.08202 8.15472 3.43058 8.15472 3.86025C8.15472 4.2802 8.48791 4.62266 8.90403 4.63794C8.91494 4.63731 8.92593 4.63699 8.937 4.63699C8.94696 4.63699 8.95686 4.63725 8.96669 4.63776C9.21623 4.62718 9.43587 4.49935 9.57156 4.30567C9.74916 4.05217 10.0986 3.99064 10.3521 4.16824C10.6056 4.34584 10.6672 4.69531 10.4896 4.94881C10.2515 5.28864 9.90372 5.54762 9.49743 5.67398V5.87743C9.49743 6.18695 9.24651 6.43786 8.937 6.43786C8.62748 6.43786 8.37656 6.18695 8.37656 5.87743V5.67646C7.59953 5.43857 7.03386 4.71558 7.03386 3.86025C7.03386 3.00492 7.59953 2.28193 8.37656 2.04404V1.8288C8.37656 1.51928 8.62748 1.26836 8.937 1.26836C9.24651 1.26836 9.49743 1.51928 9.49743 1.8288V2.04663C9.84327 2.15429 10.1466 2.35796 10.3757 2.62507C10.5773 2.85999 10.5502 3.2138 10.3153 3.41533C10.0804 3.61686 9.72655 3.58979 9.52502 3.35487C9.381 3.18699 9.16913 3.08202 8.93305 3.08202ZM14.2265 13.679V11.5555H12.0045C11.7149 11.5555 11.4729 11.6498 11.187 11.8769C11.0051 12.0884 10.8956 12.3574 10.8956 12.6173C10.8956 12.8771 11.0051 13.1462 11.187 13.3576C11.4729 13.5848 11.7149 13.679 12.0045 13.679H14.2265Z" fill="#243F5F"/>
</svg>
