<svg width="19" height="14" viewBox="0 0 19 14" fill="none" xmlns="http://www.w3.org/2000/svg">
<path fill-rule="evenodd" clip-rule="evenodd" d="M16.9197 0.546334C17.7286 0.764212 18.3666 1.402 18.5843 2.21112C18.9889 3.689 18.9734 6.76957 18.9734 6.76957C18.9734 6.76957 18.9734 9.83443 18.5845 11.3125C18.3666 12.1214 17.7288 12.7594 16.9197 12.9771C15.4416 13.3662 9.52966 13.3662 9.52966 13.3662C9.52966 13.3662 3.6331 13.3662 2.13965 12.9617C1.33053 12.7438 0.692741 12.1059 0.474863 11.2969C0.0859375 9.83443 0.0859375 6.75401 0.0859375 6.75401C0.0859375 6.75401 0.0859375 3.689 0.474863 2.21112C0.692597 1.40214 1.34609 0.74865 2.1395 0.530915C3.61753 0.141846 9.52951 0.141846 9.52951 0.141846C9.52951 0.141846 15.4416 0.141846 16.9197 0.546334ZM12.5627 6.75425L7.64646 9.58581V3.92269L12.5627 6.75425Z" fill="#243F5F"/>
</svg>
