<svg width="20" height="17" viewBox="0 0 20 17" fill="none" xmlns="http://www.w3.org/2000/svg">
    <path d="M2.16193 15.7878C1.68976 16.2915 0.898718 16.317 0.395078 15.8448C-0.108563 15.3727 -0.13408 14.5816 0.338083 14.078L5.02558 9.07799C5.48222 8.59091 6.24103 8.54867 6.7489 8.98205L10.4486 12.1391L15.2689 6.03336C15.6967 5.49151 16.4827 5.39903 17.0246 5.82681C17.5664 6.25458 17.6589 7.04062 17.2311 7.58247L11.6061 14.7075C11.1667 15.264 10.353 15.344 9.8136 14.8838L6.03354 11.6581L2.16193 15.7878Z" fill="#38CB89"/>
    <path d="M12.8217 5.98679C12.1313 5.98679 11.5717 5.42715 11.5717 4.73679C11.5717 4.04644 12.1313 3.48679 12.8217 3.48679L18.125 3.48679C18.8154 3.48679 19.375 4.04644 19.375 4.73679L19.375 10.0401C19.375 10.7305 18.8154 11.2901 18.125 11.2901C17.4346 11.2901 16.875 10.7305 16.875 10.0401L16.875 5.98679L12.8217 5.98679Z" fill="#38CB89"/>
</svg>