<svg width="24" height="24" viewBox="0 0 24 24" fill="none" xmlns="http://www.w3.org/2000/svg">
<circle cx="20.5" cy="12.5" r="1.5" fill="#F1C823"/>
<path fill-rule="evenodd" clip-rule="evenodd" d="M11.5392 3H20C20.1334 3 20.2638 3.01306 20.3899 3.03799L20.0463 1.75579C19.9034 1.22232 19.3551 0.905739 18.8216 1.04868L11.5392 3Z" fill="#F1C823"/>
<path opacity="0.3" fill-rule="evenodd" clip-rule="evenodd" d="M4 4C2.89543 4 2 4.89543 2 6V18C2 19.1046 2.89543 20 4 20H20C21.1046 20 22 19.1046 22 18V15.6632C21.5454 15.8792 21.0368 16 20.5 16C18.567 16 17 14.433 17 12.5C17 10.567 18.567 9 20.5 9C21.0368 9 21.5454 9.12085 22 9.33682V6C22 4.89543 21.1046 4 20 4H4Z" fill="#F1C823"/>
</svg>
