<svg width="50" height="50" viewBox="0 0 50 50" fill="none" xmlns="http://www.w3.org/2000/svg">
<circle cx="25" cy="25" r="25" fill="#FDF4E0"/>
<path d="M23.1768 28.4528C23.6324 28.9084 23.6324 29.6471 23.1768 30.1027C22.7212 30.5584 21.9825 30.5584 21.5269 30.1027L14.5269 23.1027C14.0852 22.6611 14.0698 21.9499 14.4918 21.4894L20.9085 14.4894C21.3439 14.0145 22.0819 13.9824 22.5569 14.4178C23.0318 14.8532 23.0639 15.5912 22.6285 16.0661L16.9667 22.2427L23.1768 28.4528Z" fill="#FFAB00"/>
<path opacity="0.3" d="M20.6018 21.1111C19.9575 21.1111 19.4352 21.6334 19.4352 22.2778C19.4352 22.9221 19.9575 23.4444 20.6018 23.4444H28.1852C28.8295 23.4444 29.3518 23.9668 29.3518 24.6111V36.3263C29.3518 36.9706 29.8742 37.493 30.5185 37.493C31.1628 37.493 31.6852 36.9706 31.6852 36.3263V24.6111C31.6852 22.6781 30.1182 21.1111 28.1852 21.1111H20.6018Z" fill="#FFAB00"/>
</svg>
