<svg width="31" height="31" viewBox="0 0 24 24" fill="none" xmlns="http://www.w3.org/2000/svg">
<path fill-rule="evenodd" clip-rule="evenodd" d="M12 18L7.91559 20.1473C7.42675 20.4043 6.82212 20.2163 6.56512 19.7275C6.46278 19.5328 6.42746 19.3099 6.46464 19.0931L7.24469 14.5451L3.94036 11.3242C3.54487 10.9387 3.53678 10.3055 3.92228 9.91006C4.07579 9.75258 4.27693 9.65009 4.49457 9.61846L9.06105 8.95492L11.1032 4.81699C11.3477 4.32173 11.9473 4.1184 12.4425 4.36282C12.6397 4.46015 12.7994 4.61978 12.8967 4.81699L14.9389 8.95492L19.5054 9.61846C20.0519 9.69788 20.4306 10.2053 20.3512 10.7519C20.3196 10.9695 20.2171 11.1707 20.0596 11.3242L16.7553 14.5451L17.5353 19.0931C17.6287 19.6374 17.2631 20.1544 16.7187 20.2478C16.502 20.2849 16.279 20.2496 16.0844 20.1473L12 18Z" fill="#C1C7D0"/>
</svg>
