<svg width="17" height="17" viewBox="0 0 17 17" fill="none" xmlns="http://www.w3.org/2000/svg">
    <path opacity="0.3" fill-rule="evenodd" clip-rule="evenodd" d="M14.167 3.54165C14.167 3.15044 13.8499 2.83331 13.4587 2.83331C13.0675 2.83331 12.7503 3.15044 12.7503 3.54165V4.25H12.0418C11.6506 4.25 11.3335 4.56713 11.3335 4.95833C11.3335 5.34954 11.6506 5.66667 12.0418 5.66667H12.7503V6.37498C12.7503 6.76618 13.0675 7.08331 13.4587 7.08331C13.8499 7.08331 14.167 6.76618 14.167 6.37498V5.66667H14.8752C15.2664 5.66667 15.5835 5.34954 15.5835 4.95833C15.5835 4.56713 15.2664 4.25 14.8752 4.25H14.167V3.54165Z" fill="white"/>
    <path d="M6.37484 7.79167C4.81003 7.79167 3.5415 6.52314 3.5415 4.95833C3.5415 3.39353 4.81003 2.125 6.37484 2.125C7.93964 2.125 9.20817 3.39353 9.20817 4.95833C9.20817 6.52314 7.93964 7.79167 6.37484 7.79167Z" fill="white"/>
    <path d="M0.00046161 14.3078C0.275016 10.9271 3.01885 9.20834 6.3632 9.20834C9.75461 9.20834 12.541 10.8327 12.7485 14.3083C12.7568 14.4468 12.7485 14.875 12.2164 14.875C9.59163 14.875 5.69126 14.875 0.515314 14.875C0.337671 14.875 -0.0144937 14.4919 0.00046161 14.3078Z" fill="white"/>
</svg>