<svg width="30" height="30" viewBox="0 0 30 30" fill="none" xmlns="http://www.w3.org/2000/svg">
<path fill-rule="evenodd" clip-rule="evenodd" d="M27.9233 22.8921C28.2389 23.2077 28.7784 22.9831 28.7768 22.5368L28.7549 16.3816V6.90789C28.7549 5.16384 27.3411 3.75 25.597 3.75H10.8602C9.11611 3.75 7.70227 5.16384 7.70227 6.90789V11.25H17C18.6568 11.25 20 12.5931 20 14.25V19.5395H24.5706L27.9233 22.8921Z" fill="#B0B7C3"/>
<path opacity="0.3" fill-rule="evenodd" clip-rule="evenodd" d="M2.48132 22.5V16.25C2.48132 14.8693 3.60061 13.75 4.98132 13.75H14.9813C16.362 13.75 17.4813 14.8693 17.4813 16.25V22.5C17.4813 23.8807 16.362 25 14.9813 25H5.12599L3.35974 26.6905C3.04174 26.9949 2.51401 26.7695 2.51401 26.3293V22.9053C2.49251 22.7734 2.48132 22.638 2.48132 22.5ZM7.49994 18C7.49994 17.7239 7.7238 17.5 7.99994 17.5H14.4999C14.7761 17.5 14.9999 17.7239 14.9999 18V18.25C14.9999 18.5261 14.7761 18.75 14.4999 18.75H7.99994C7.7238 18.75 7.49994 18.5261 7.49994 18.25V18ZM11.7499 20C11.4738 20 11.2499 20.2239 11.2499 20.5V20.75C11.2499 21.0261 11.4738 21.25 11.7499 21.25H14.4999C14.7761 21.25 14.9999 21.0261 14.9999 20.75V20.5C14.9999 20.2239 14.7761 20 14.4999 20H11.7499Z" fill="#B0B7C3"/>
</svg>
