<svg width="24" height="24" viewBox="0 0 24 24" fill="none" xmlns="http://www.w3.org/2000/svg">
<path fill-rule="evenodd" clip-rule="evenodd" d="M9 5C9 4.44772 9.44772 4 10 4H21C21.5523 4 22 4.44772 22 5V7C22 7.55228 21.5523 8 21 8H10C9.44772 8 9 7.55228 9 7V5ZM9 11C9 10.4477 9.44772 10 10 10H21C21.5523 10 22 10.4477 22 11V13C22 13.5523 21.5523 14 21 14H10C9.44772 14 9 13.5523 9 13V11ZM10 16C9.44772 16 9 16.4477 9 17V19C9 19.5523 9.44772 20 10 20H21C21.5523 20 22 19.5523 22 19V17C22 16.4477 21.5523 16 21 16H10Z" fill="#B0B7C3"/>
<rect opacity="0.3" x="2" y="4" width="5" height="16" rx="1" fill="#B0B7C3"/>
</svg>
